<mxfile host="app.diagrams.net" modified="2022-11-21T10:27:20.438Z" agent="5.0 (Macintosh; Intel Mac OS X 10_15_7) AppleWebKit/537.36 (KHTML, like Gecko) Chrome/107.0.0.0 Safari/537.36" etag="1OR7tOSxpjushqUxvY8M" version="20.5.3" type="github">
  <diagram id="jk84KoCiqGRbvonOO5nR" name="Page-1">
    <mxGraphModel dx="2163" dy="1278" grid="0" gridSize="10" guides="1" tooltips="1" connect="1" arrows="1" fold="1" page="1" pageScale="1" pageWidth="1300" pageHeight="1300" background="#EFF1F3" math="0" shadow="0">
      <root>
        <mxCell id="0" />
        <mxCell id="1" parent="0" />
        <mxCell id="hFw0BgIfAZiKhD6lUdD--5" value="" style="rounded=1;whiteSpace=wrap;html=1;fillColor=none;dashed=1;strokeWidth=3;strokeColor=#F19C99;" parent="1" vertex="1">
          <mxGeometry x="326" y="425" width="329" height="325" as="geometry" />
        </mxCell>
        <mxCell id="hFw0BgIfAZiKhD6lUdD--40" style="edgeStyle=orthogonalEdgeStyle;rounded=1;orthogonalLoop=1;jettySize=auto;html=1;exitX=0.5;exitY=1;exitDx=0;exitDy=0;entryX=0.5;entryY=0;entryDx=0;entryDy=0;dashed=1;strokeColor=#4A919B;strokeWidth=3;fontSize=51;" parent="1" source="qShackGRjmq04HdrOnjv-21" target="76pOBQbfIAmx4sFAEdD8-2" edge="1">
          <mxGeometry relative="1" as="geometry" />
        </mxCell>
        <mxCell id="hFw0BgIfAZiKhD6lUdD--43" style="edgeStyle=orthogonalEdgeStyle;rounded=1;orthogonalLoop=1;jettySize=auto;html=1;exitX=0.5;exitY=1;exitDx=0;exitDy=0;entryX=0.5;entryY=0;entryDx=0;entryDy=0;dashed=1;strokeColor=#4A919B;strokeWidth=3;fontSize=51;" parent="1" source="qShackGRjmq04HdrOnjv-21" target="76pOBQbfIAmx4sFAEdD8-1" edge="1">
          <mxGeometry relative="1" as="geometry" />
        </mxCell>
        <mxCell id="qShackGRjmq04HdrOnjv-21" value="" style="shape=image;verticalLabelPosition=bottom;labelBackgroundColor=default;verticalAlign=top;aspect=fixed;imageAspect=0;image=data:image/svg+xml,PHN2ZyB4bWxuczp4bGluaz0iaHR0cDovL3d3dy53My5vcmcvMTk5OS94bGluayIgeG1sbnM9Imh0dHA6Ly93d3cudzMub3JnLzIwMDAvc3ZnIiBoZWlnaHQ9IjIwMCIgd2lkdGg9IjIwMCIgdmVyc2lvbj0iMS4xIiB2aWV3Qm94PSIwIDAgMTAyNCAxMDI0IiBjbGFzcz0iaWNvbiI+PHBhdGggZmlsbD0iIzRBOTE5QiIgZD0iTTg1NS4yIDgzOS4ySDE2OC44Qzc3LjYgODM5LjIgNCA3NjQuOCA0IDY3NC40YzAtNzEuMiA0NS42LTEzNC40IDExMi0xNTYuOCAwLTQuOC0wLjgtMTAuNC0wLjgtMTUuMiAwLTExMi44IDkyLTIwNC44IDIwNC44LTIwNC44aDUuNmMzNC40LTY4LjggMTA1LjYtMTEyLjggMTgzLjItMTEyLjhzMTQ4LjggNDQgMTgzLjIgMTEyLjhoNS42YzExMi44IDAgMjA0LjggOTIgMjA0LjggMjA0LjggMCA0LjggMCA4LjgtMC44IDEzLjYgNjggMjAuOCAxMTYgODUuNiAxMTYgMTU3LjYgMi40IDkxLjItNzIgMTY1LjYtMTYyLjQgMTY1LjZ6TTMyMC44IDMyOS42Yy05NS4yIDAtMTcyLjggNzcuNi0xNzIuOCAxNzIuOCAwIDggMC44IDE2IDEuNiAyNHMtNCAxNi0xMiAxNy42Qzc3LjYgNTU5LjIgMzYgNjEyLjggMzYgNjc0LjRjMCA3My42IDYwIDEzMi44IDEzMi44IDEzMi44aDY4NS42YzczLjYgMCAxMzIuOC02MCAxMzIuOC0xMzIuOCAwLTYyLjQtNDQtMTE2LjgtMTA0LjgtMTMwLjQtOC0xLjYtMTMuNi05LjYtMTIuOC0xNy42IDAuOC04IDEuNi0xNiAxLjYtMjMuMiAwLTk1LjItNzcuNi0xNzIuOC0xNzIuOC0xNzIuOC00LjggMC04LjggMC0xNC40IDAuOC02LjQgMC44LTEzLjYtMy4yLTE2LTkuNi0yOC02My4yLTg5LjYtMTA0LTE1OC40LTEwNC02OC44IDAtMTMxLjIgNDAuOC0xNTguNCAxMDQtMi40IDYuNC05LjYgMTAuNC0xNiA5LjYtNS42LTEuNi0xMC40LTEuNi0xNC40LTEuNnoiLz48cGF0aCBmaWxsPSIjNEE5MTlCIiBkPSJNNDE2IDc4OC44Yy00MCAwLTcyLTMyLjgtNzItNzIgMC00MCAzMi44LTcyIDcyLTcyIDQwIDAgNzIgMzIuOCA3MiA3MnMtMzIuOCA3Mi03MiA3MnogbTAtMTI4LjhjLTMxLjIgMC01NiAyNS42LTU2IDU2IDAgMzEuMiAyNS42IDU2IDU2IDU2IDMxLjIgMCA1Ni0yNS42IDU2LTU2cy0yNS42LTU2LTU2LTU2ek00MTYgNTA4LjhjLTQwIDAtNzItMzIuOC03Mi03MiAwLTQwIDMyLjgtNzIgNzItNzIgNDAgMCA3MiAzMi44IDcyIDcycy0zMi44IDcyLTcyIDcyeiBtMC0xMjguOGMtMzEuMiAwLTU2IDI1LjYtNTYgNTYgMCAzMS4yIDI1LjYgNTYgNTYgNTYgMzEuMiAwIDU2LTI1LjYgNTYtNTZzLTI1LjYtNTYtNTYtNTZ6TTcwMCA2NDguOGMtNDAgMC03Mi0zMi44LTcyLTcyIDAtNDAgMzIuOC03MiA3Mi03MiA0MCAwIDcyIDMyLjggNzIgNzJzLTMyLjggNzItNzIgNzJ6IG0wLTEyOC44Yy0zMS4yIDAtNTYgMjUuNi01NiA1NnMyNS42IDU2IDU2IDU2YzMxLjIgMCA1Ni0yNS42IDU2LTU2cy0yNS42LTU2LTU2LTU2eiIvPjxwYXRoIGZpbGw9IiM0QTkxOUIiIGQ9Ik00NjkuNiA2ODguOGMtMy4yIDAtNi40LTEuNi03LjItNC44LTEuNi00IDAuOC04LjggNC44LTEwLjRsMTY4LTY1LjZjLTQuOC05LjYtNy4yLTIwLTcuMi0zMS4yczIuNC0yMS42IDcuMi0zMS4ybC0xNjgtNjUuNmMtNC0xLjYtNi40LTYuNC00LjgtMTAuNCAxLjYtNCA2LjQtNi40IDEwLjQtNC44bDE3Ni44IDY5LjZjMi40IDAuOCA0IDIuNCA0LjggNC44IDAuOCAyLjQgMCA0LjgtMC44IDcuMi02LjQgOS42LTkuNiAyMC05LjYgMzEuMnMzLjIgMjEuNiA5LjYgMzEuMmMxLjYgMi40IDEuNiA0LjggMC44IDcuMi0wLjggMi40LTIuNCA0LTQuOCA0LjhMNDcyIDY4OC44aC0yLjR6Ii8+PC9zdmc+;" parent="1" vertex="1">
          <mxGeometry x="561" y="14" width="207" height="207" as="geometry" />
        </mxCell>
        <mxCell id="hFw0BgIfAZiKhD6lUdD--9" style="edgeStyle=orthogonalEdgeStyle;rounded=1;orthogonalLoop=1;jettySize=auto;html=1;exitX=0.5;exitY=1;exitDx=0;exitDy=0;entryX=0.5;entryY=0;entryDx=0;entryDy=0;strokeWidth=3;strokeColor=#4A919B;dashed=1;" parent="1" source="hFw0BgIfAZiKhD6lUdD--6" edge="1">
          <mxGeometry relative="1" as="geometry">
            <mxPoint x="412.5" y="609" as="targetPoint" />
          </mxGeometry>
        </mxCell>
        <mxCell id="hFw0BgIfAZiKhD6lUdD--10" style="edgeStyle=orthogonalEdgeStyle;rounded=1;orthogonalLoop=1;jettySize=auto;html=1;exitX=0.5;exitY=1;exitDx=0;exitDy=0;strokeWidth=3;strokeColor=#4A919B;dashed=1;" parent="1" source="hFw0BgIfAZiKhD6lUdD--6" edge="1">
          <mxGeometry relative="1" as="geometry">
            <mxPoint x="568.5714285714294" y="609" as="targetPoint" />
          </mxGeometry>
        </mxCell>
        <mxCell id="hFw0BgIfAZiKhD6lUdD--6" value="" style="shape=image;verticalLabelPosition=bottom;verticalAlign=top;imageAspect=0;aspect=fixed;image=data:image/svg+xml,PHN2ZyB4bWxuczp4bGluaz0iaHR0cDovL3d3dy53My5vcmcvMTk5OS94bGluayIgeG1sbnM9Imh0dHA6Ly93d3cudzMub3JnLzIwMDAvc3ZnIiBoZWlnaHQ9IjIwMCIgd2lkdGg9IjIwMCIgdmVyc2lvbj0iMS4xIiB2aWV3Qm94PSIwIDAgMTAyNCAxMDI0IiBjbGFzcz0iaWNvbiI+PGRlZnM+PHN0eWxlIHR5cGU9InRleHQvY3NzIj5AZm9udC1mYWNlIHsgZm9udC1mYW1pbHk6IGZlZWRiYWNrLWljb25mb250OyBzcmM6IHVybCgiLy9hdC5hbGljZG4uY29tL3QvZm9udF8xMDMxMTU4X3U2OXc4eWh4ZHUud29mZjI/dD0xNjMwMDMzNzU5OTQ0IikgZm9ybWF0KCJ3b2ZmMiIpLCB1cmwoIi8vYXQuYWxpY2RuLmNvbS90L2ZvbnRfMTAzMTE1OF91Njl3OHloeGR1LndvZmY/dD0xNjMwMDMzNzU5OTQ0IikgZm9ybWF0KCJ3b2ZmIiksIHVybCgiLy9hdC5hbGljZG4uY29tL3QvZm9udF8xMDMxMTU4X3U2OXc4eWh4ZHUudHRmP3Q9MTYzMDAzMzc1OTk0NCIpIGZvcm1hdCgidHJ1ZXR5cGUiKTsgfSYjeGE7PC9zdHlsZT48L2RlZnM+PHBhdGggZmlsbD0iIzRBOTE5QiIgZD0iTTk2MCA5NDRINjRjLTM1LjI5NiAwLTY0LTI4LjcwNC02NC02NFY2NTZjMC0zNS4yOTYgMjguNzA0LTY0IDY0LTY0aDg5NmMzNS4yOTYgMCA2NCAyOC43MDQgNjQgNjR2MjI0YzAgMzUuMjk2LTI4LjcwNCA2NC02NCA2NHpNNjQgNjI0Yy0xNy42NDggMC0zMiAxNC4zNTItMzIgMzJ2MjI0YzAgMTcuNjQ4IDE0LjM1MiAzMiAzMiAzMmg4OTZjMTcuNjQ4IDAgMzItMTQuMzUyIDMyLTMyVjY1NmMwLTE3LjY0OC0xNC4zNTItMzItMzItMzJINjR6Ii8+PHBhdGggZmlsbD0iIzRBOTE5QiIgZD0iTTI0MCAxMDA4SDExMmExNiAxNiAwIDAgMS0xNi0xNnYtNjRhMTYgMTYgMCAwIDEgMTYtMTZoMTI4YTE2IDE2IDAgMCAxIDE2IDE2djY0YTE2IDE2IDAgMCAxLTE2IDE2eiBtLTExMi0zMmg5NnYtMzJIMTI4djMyek05MTIgMTAwOGgtMTI4YTE2IDE2IDAgMCAxLTE2LTE2di02NGExNiAxNiAwIDAgMSAxNi0xNmgxMjhhMTYgMTYgMCAwIDEgMTYgMTZ2NjRhMTYgMTYgMCAwIDEtMTYgMTZ6IG0tMTEyLTMyaDk2di0zMmgtOTZ2MzJ6TTg1Ni42NTYgNDYwLjE2YTE1Ljk4NCAxNS45ODQgMCAwIDEtNi44MTYtMzAuNDk2QzkxNi43NjggMzk4LjI3MiA5NjAgMzMwLjA5NiA5NjAgMjU2YzAtMTA1Ljg3Mi04Ni4xMjgtMTkyLTE5Mi0xOTJTNTc2IDE1MC4xMjggNTc2IDI1NmMwIDc0LjA4IDQzLjIzMiAxNDIuMjcyIDExMC4xNiAxNzMuNjY0YTE2IDE2IDAgMCAxLTEzLjYgMjguOTc2QzU5NC40OCA0MjEuOTg0IDU0NCAzNDIuNDQ4IDU0NCAyNTZjMC0xMjMuNTIgMTAwLjQ4LTIyNCAyMjQtMjI0czIyNCAxMDAuNDggMjI0IDIyNGMwIDg2LjQ0OC01MC40NjQgMTY1Ljk4NC0xMjguNTYgMjAyLjY0YTE1Ljk2OCAxNS45NjggMCAwIDEtNi43ODQgMS41MnoiLz48cGF0aCBmaWxsPSIjNEE5MTlCIiBkPSJNODUzLjI5NiAzODcuODRhMTYgMTYgMCAwIDEtOS40ODgtMjguODk2QTEyOC4yNCAxMjguMjQgMCAwIDAgODk2IDI1NmMwLTcwLjU3Ni01Ny40MjQtMTI4LTEyOC0xMjhzLTEyOCA1Ny40MjQtMTI4IDEyOGExMjguMjQgMTI4LjI0IDAgMCAwIDUyLjE5MiAxMDIuOTQ0IDE2IDE2IDAgMCAxLTE4Ljk0NCAyNS43OTJBMTYwLjMzNiAxNjAuMzM2IDAgMCAxIDYwOCAyNTZjMC04OC4yMjQgNzEuNzc2LTE2MCAxNjAtMTYwczE2MCA3MS43NzYgMTYwIDE2MGMwIDUwLjYwOC0yNC4zODQgOTguNzItNjUuMjQ4IDEyOC43MzZhMTUuOTIgMTUuOTIgMCAwIDEtOS40NCAzLjEwNHoiLz48cGF0aCBmaWxsPSIjNEE5MTlCIiBkPSJNODQ3LjY5NiAyNzYuNDhhMTYgMTYgMCAwIDEtMTUuNjY0LTE5LjM5MkM4MzIgMjIwLjY4OCA4MDMuMzEyIDE5MiA3NjggMTkycy02NCAyOC43MDQtNjQgNjRjMS44NzIgOC42NC0zLjYzMiAxNy42OTYtMTIuMjcyIDE5LjU2OC04LjU5MiAxLjg4OC0xNy4xODQtMy4wNC0xOS4wNTYtMTEuNjhDNjcyIDI2MC43MzYgNjcyIDI1Ny44ODggNjcyIDI1NmMwLTUyLjk0NCA0My4wNTYtOTYgOTYtOTZzOTYgNDMuMDU2IDk2IDk2YzAgMS45MDQgMCA0Ljc1Mi0wLjY3MiA3Ljg3MmExNi4wMTYgMTYuMDE2IDAgMCAxLTE1LjYzMiAxMi42MDh6Ii8+PHBhdGggZmlsbD0iIzRBOTE5QiIgZD0iTTgwMC4zMiA2MjRINzM2YTE1LjkzNiAxNS45MzYgMCAwIDEtMTEuNTY4LTQuOTYgMTUuOTA0IDE1LjkwNCAwIDAgMS00LjQxNi0xMS43NmwxNS4yNjQtMzM2LjAxNmEzMi43MzYgMzIuNzM2IDAgMCAxIDY1LjQyNCAwbDE1LjEzNiAzMzIuODMyQTE2IDE2IDAgMCAxIDgwMC4zMiA2MjR6IG0tNDcuNTItMzJoMzAuNDQ4bC0xNC41MTItMzE5LjI5Nkw3NTIuOCA1OTJ6TTE0NCA4MTZjLTI2LjQ2NCAwLTQ4LTIxLjUzNi00OC00OHMyMS41MzYtNDggNDgtNDggNDggMjEuNTM2IDQ4IDQ4LTIxLjUzNiA0OC00OCA0OHogbTAtNjRhMTYgMTYgMCAxIDAgMC4wMTYgMzIuMDE2QTE2IDE2IDAgMCAwIDE0NCA3NTJ6TTI3MiA4MTZjLTI2LjQ2NCAwLTQ4LTIxLjUzNi00OC00OHMyMS41MzYtNDggNDgtNDggNDggMjEuNTM2IDQ4IDQ4LTIxLjUzNiA0OC00OCA0OHogbTAtNjRhMTYgMTYgMCAxIDAgMC4wMTYgMzIuMDE2QTE2IDE2IDAgMCAwIDI3MiA3NTJ6TTQwMCA4MTZjLTI2LjQ2NCAwLTQ4LTIxLjUzNi00OC00OHMyMS41MzYtNDggNDgtNDggNDggMjEuNTM2IDQ4IDQ4LTIxLjUzNiA0OC00OCA0OHogbTAtNjRhMTYgMTYgMCAxIDAgMC4wMTYgMzIuMDE2QTE2IDE2IDAgMCAwIDQwMCA3NTJ6TTk0NCA4ODBjLTQuMTYgMC04LjMyLTEuNzYtMTEuMzYtNC42NEExNi44IDE2LjggMCAwIDEgOTI4IDg2NGMwLTQuMzIgMS43Ni04LjMyIDQuNjQtMTEuMzYgNS45Mi01LjkyIDE2LjgtNS45MiAyMi43MiAwIDIuODggMy4wNCA0LjY0IDcuMiA0LjY0IDExLjM2cy0xLjc2IDguMzItNC42NCAxMS4zNmMtMy4wNCAyLjg4LTcuMiA0LjY0LTExLjM2IDQuNjR6TTg4MCA4ODBjLTQuMTYgMC04LjMyLTEuNzYtMTEuMzYtNC42NC0yLjg4LTMuMDQtNC42NC03LjItNC42NC0xMS4zNnMxLjc2LTguMzIgNC42NC0xMS4zNmM1LjkyLTUuOTIgMTYuNjQtNS45MiAyMi43MiAwIDIuODggMy4wNCA0LjY0IDcuMiA0LjY0IDExLjM2cy0xLjc2IDguMzItNC42NCAxMS4zNmMtMy4wNCAzLjA0LTcuMiA0LjY0LTExLjM2IDQuNjR6TTgxNiA4ODBjLTQuMzIgMC04LjMyLTEuNzYtMTEuMzYtNC42NC0yLjg4LTMuMDQtNC42NC03LjItNC42NC0xMS4zNnMxLjc2LTguMzIgNC42NC0xMS4zNmM1LjkyLTUuOTIgMTYuOC01LjkyIDIyLjcyIDAgMi44OCAzLjA0IDQuNjQgNy4yIDQuNjQgMTEuMzZzLTEuNzYgOC4zMi00LjY0IDExLjM2Yy0zLjA0IDIuODgtNy4yIDQuNjQtMTEuMzYgNC42NHpNNzUyIDg4MGMtNC4xNiAwLTguMzItMS43Ni0xMS4zNi00LjY0LTIuODgtMy4wNC00LjY0LTcuMi00LjY0LTExLjM2czEuNzYtOC4zMiA0LjY0LTExLjM2YzYuMDgtNS45MiAxNi42NC01LjkyIDIyLjcyIDAgMi44OCAzLjA0IDQuNjQgNy4yIDQuNjQgMTEuMzZzLTEuNzYgOC4zMi00LjY0IDExLjM2Yy0zLjA0IDIuODgtNy4yIDQuNjQtMTEuMzYgNC42NHpNOTQ0IDgxNmMtNC4xNiAwLTguMzItMS43Ni0xMS4zNi00LjY0QTE2LjggMTYuOCAwIDAgMSA5MjggODAwYzAtNC4zMiAxLjc2LTguMzIgNC42NC0xMS4zNiA1LjkyLTUuOTIgMTYuOC01LjkyIDIyLjcyIDAgMi44OCAzLjA0IDQuNjQgNy4yIDQuNjQgMTEuMzZzLTEuNzYgOC4zMi00LjY0IDExLjM2Yy0zLjA0IDIuODgtNy4yIDQuNjQtMTEuMzYgNC42NHpNODgwIDgxNmMtNC4xNiAwLTguMzItMS43Ni0xMS4zNi00LjY0QTE2LjggMTYuOCAwIDAgMSA4NjQgODAwYzAtNC4zMiAxLjc2LTguMzIgNC42NC0xMS4zNiA1LjkyLTUuOTIgMTYuNjQtNS45MiAyMi43MiAwIDIuODggMy4wNCA0LjY0IDcuMiA0LjY0IDExLjM2cy0xLjc2IDguMzItNC42NCAxMS4zNmMtMy4wNCAyLjg4LTcuMiA0LjY0LTExLjM2IDQuNjR6TTgxNiA4MTZjLTQuMTYgMC04LjMyLTEuNzYtMTEuMzYtNC42NC0yLjg4LTMuMDQtNC42NC03LjItNC42NC0xMS4zNnMxLjc2LTguMzIgNC42NC0xMS4zNmM1LjkyLTUuOTIgMTYuOC01LjkyIDIyLjcyIDAgMi44OCAzLjA0IDQuNjQgNy4yIDQuNjQgMTEuMzZzLTEuNzYgOC4zMi00LjY0IDExLjM2Yy0zLjA0IDIuODgtNy4yIDQuNjQtMTEuMzYgNC42NHpNOTQ0IDc1MmMtNC4xNiAwLTguMzItMS43Ni0xMS4zNi00LjY0QTE2LjggMTYuOCAwIDAgMSA5MjggNzM2YzAtNC4zMiAxLjc2LTguMzIgNC42NC0xMS4zNiA1LjkyLTUuOTIgMTYuOC01LjkyIDIyLjcyIDAgMi44OCAzLjA0IDQuNjQgNy4yIDQuNjQgMTEuMzZzLTEuNzYgOC4zMi00LjY0IDExLjM2Yy0zLjA0IDIuODgtNy4yIDQuNjQtMTEuMzYgNC42NHpNODgwIDc1MmMtNC4xNiAwLTguMzItMS43Ni0xMS4zNi00LjY0QTE2LjggMTYuOCAwIDAgMSA4NjQgNzM2YzAtNC4zMiAxLjc2LTguMzIgNC42NC0xMS4zNiA1LjkyLTUuOTIgMTYuNjQtNS45MiAyMi43MiAwIDIuODggMy4wNCA0LjY0IDcuMiA0LjY0IDExLjM2cy0xLjc2IDguMzItNC42NCAxMS4zNmMtMy4wNCAyLjg4LTcuMiA0LjY0LTExLjM2IDQuNjR6TTk0NCA2ODhjLTQuMTYgMC04LjMyLTEuNzYtMTEuMzYtNC42NGExNi4xNiAxNi4xNiAwIDAgMSAwLTIyLjcyYzUuOTItNS45MiAxNi44LTUuOTIgMjIuNzIgMCAyLjg4IDMuMDQgNC42NCA3LjA0IDQuNjQgMTEuMzYgMCA0LjE2LTEuNzYgOC4zMi00LjY0IDExLjM2LTMuMDQgMi44OC03LjIgNC42NC0xMS4zNiA0LjY0eiIvPjwvc3ZnPg==" parent="1" vertex="1">
          <mxGeometry x="431" y="429" width="119" height="119" as="geometry" />
        </mxCell>
        <mxCell id="hFw0BgIfAZiKhD6lUdD--12" value="" style="rounded=1;whiteSpace=wrap;html=1;fillColor=none;dashed=1;strokeWidth=3;strokeColor=#4A919B;" parent="1" vertex="1">
          <mxGeometry x="684" y="428" width="329" height="324" as="geometry" />
        </mxCell>
        <mxCell id="hFw0BgIfAZiKhD6lUdD--17" style="edgeStyle=orthogonalEdgeStyle;rounded=1;orthogonalLoop=1;jettySize=auto;html=1;exitX=0.5;exitY=1;exitDx=0;exitDy=0;entryX=0.5;entryY=0;entryDx=0;entryDy=0;strokeWidth=3;strokeColor=#4A919B;dashed=1;" parent="1" source="hFw0BgIfAZiKhD6lUdD--19" edge="1">
          <mxGeometry relative="1" as="geometry">
            <mxPoint x="770.5" y="609" as="targetPoint" />
          </mxGeometry>
        </mxCell>
        <mxCell id="hFw0BgIfAZiKhD6lUdD--18" style="edgeStyle=orthogonalEdgeStyle;rounded=1;orthogonalLoop=1;jettySize=auto;html=1;exitX=0.5;exitY=1;exitDx=0;exitDy=0;strokeWidth=3;strokeColor=#4A919B;dashed=1;" parent="1" source="hFw0BgIfAZiKhD6lUdD--19" edge="1">
          <mxGeometry relative="1" as="geometry">
            <mxPoint x="926.5714285714284" y="609" as="targetPoint" />
          </mxGeometry>
        </mxCell>
        <mxCell id="hFw0BgIfAZiKhD6lUdD--19" value="" style="shape=image;verticalLabelPosition=bottom;verticalAlign=top;imageAspect=0;aspect=fixed;image=data:image/svg+xml,PHN2ZyB4bWxuczp4bGluaz0iaHR0cDovL3d3dy53My5vcmcvMTk5OS94bGluayIgeG1sbnM9Imh0dHA6Ly93d3cudzMub3JnLzIwMDAvc3ZnIiBoZWlnaHQ9IjIwMCIgd2lkdGg9IjIwMCIgdmVyc2lvbj0iMS4xIiB2aWV3Qm94PSIwIDAgMTAyNCAxMDI0IiBjbGFzcz0iaWNvbiI+PGRlZnM+PHN0eWxlIHR5cGU9InRleHQvY3NzIj5AZm9udC1mYWNlIHsgZm9udC1mYW1pbHk6IGZlZWRiYWNrLWljb25mb250OyBzcmM6IHVybCgiLy9hdC5hbGljZG4uY29tL3QvZm9udF8xMDMxMTU4X3U2OXc4eWh4ZHUud29mZjI/dD0xNjMwMDMzNzU5OTQ0IikgZm9ybWF0KCJ3b2ZmMiIpLCB1cmwoIi8vYXQuYWxpY2RuLmNvbS90L2ZvbnRfMTAzMTE1OF91Njl3OHloeGR1LndvZmY/dD0xNjMwMDMzNzU5OTQ0IikgZm9ybWF0KCJ3b2ZmIiksIHVybCgiLy9hdC5hbGljZG4uY29tL3QvZm9udF8xMDMxMTU4X3U2OXc4eWh4ZHUudHRmP3Q9MTYzMDAzMzc1OTk0NCIpIGZvcm1hdCgidHJ1ZXR5cGUiKTsgfSYjeGE7PC9zdHlsZT48L2RlZnM+PHBhdGggZmlsbD0iIzRBOTE5QiIgZD0iTTk2MCA5NDRINjRjLTM1LjI5NiAwLTY0LTI4LjcwNC02NC02NFY2NTZjMC0zNS4yOTYgMjguNzA0LTY0IDY0LTY0aDg5NmMzNS4yOTYgMCA2NCAyOC43MDQgNjQgNjR2MjI0YzAgMzUuMjk2LTI4LjcwNCA2NC02NCA2NHpNNjQgNjI0Yy0xNy42NDggMC0zMiAxNC4zNTItMzIgMzJ2MjI0YzAgMTcuNjQ4IDE0LjM1MiAzMiAzMiAzMmg4OTZjMTcuNjQ4IDAgMzItMTQuMzUyIDMyLTMyVjY1NmMwLTE3LjY0OC0xNC4zNTItMzItMzItMzJINjR6Ii8+PHBhdGggZmlsbD0iIzRBOTE5QiIgZD0iTTI0MCAxMDA4SDExMmExNiAxNiAwIDAgMS0xNi0xNnYtNjRhMTYgMTYgMCAwIDEgMTYtMTZoMTI4YTE2IDE2IDAgMCAxIDE2IDE2djY0YTE2IDE2IDAgMCAxLTE2IDE2eiBtLTExMi0zMmg5NnYtMzJIMTI4djMyek05MTIgMTAwOGgtMTI4YTE2IDE2IDAgMCAxLTE2LTE2di02NGExNiAxNiAwIDAgMSAxNi0xNmgxMjhhMTYgMTYgMCAwIDEgMTYgMTZ2NjRhMTYgMTYgMCAwIDEtMTYgMTZ6IG0tMTEyLTMyaDk2di0zMmgtOTZ2MzJ6TTg1Ni42NTYgNDYwLjE2YTE1Ljk4NCAxNS45ODQgMCAwIDEtNi44MTYtMzAuNDk2QzkxNi43NjggMzk4LjI3MiA5NjAgMzMwLjA5NiA5NjAgMjU2YzAtMTA1Ljg3Mi04Ni4xMjgtMTkyLTE5Mi0xOTJTNTc2IDE1MC4xMjggNTc2IDI1NmMwIDc0LjA4IDQzLjIzMiAxNDIuMjcyIDExMC4xNiAxNzMuNjY0YTE2IDE2IDAgMCAxLTEzLjYgMjguOTc2QzU5NC40OCA0MjEuOTg0IDU0NCAzNDIuNDQ4IDU0NCAyNTZjMC0xMjMuNTIgMTAwLjQ4LTIyNCAyMjQtMjI0czIyNCAxMDAuNDggMjI0IDIyNGMwIDg2LjQ0OC01MC40NjQgMTY1Ljk4NC0xMjguNTYgMjAyLjY0YTE1Ljk2OCAxNS45NjggMCAwIDEtNi43ODQgMS41MnoiLz48cGF0aCBmaWxsPSIjNEE5MTlCIiBkPSJNODUzLjI5NiAzODcuODRhMTYgMTYgMCAwIDEtOS40ODgtMjguODk2QTEyOC4yNCAxMjguMjQgMCAwIDAgODk2IDI1NmMwLTcwLjU3Ni01Ny40MjQtMTI4LTEyOC0xMjhzLTEyOCA1Ny40MjQtMTI4IDEyOGExMjguMjQgMTI4LjI0IDAgMCAwIDUyLjE5MiAxMDIuOTQ0IDE2IDE2IDAgMCAxLTE4Ljk0NCAyNS43OTJBMTYwLjMzNiAxNjAuMzM2IDAgMCAxIDYwOCAyNTZjMC04OC4yMjQgNzEuNzc2LTE2MCAxNjAtMTYwczE2MCA3MS43NzYgMTYwIDE2MGMwIDUwLjYwOC0yNC4zODQgOTguNzItNjUuMjQ4IDEyOC43MzZhMTUuOTIgMTUuOTIgMCAwIDEtOS40NCAzLjEwNHoiLz48cGF0aCBmaWxsPSIjNEE5MTlCIiBkPSJNODQ3LjY5NiAyNzYuNDhhMTYgMTYgMCAwIDEtMTUuNjY0LTE5LjM5MkM4MzIgMjIwLjY4OCA4MDMuMzEyIDE5MiA3NjggMTkycy02NCAyOC43MDQtNjQgNjRjMS44NzIgOC42NC0zLjYzMiAxNy42OTYtMTIuMjcyIDE5LjU2OC04LjU5MiAxLjg4OC0xNy4xODQtMy4wNC0xOS4wNTYtMTEuNjhDNjcyIDI2MC43MzYgNjcyIDI1Ny44ODggNjcyIDI1NmMwLTUyLjk0NCA0My4wNTYtOTYgOTYtOTZzOTYgNDMuMDU2IDk2IDk2YzAgMS45MDQgMCA0Ljc1Mi0wLjY3MiA3Ljg3MmExNi4wMTYgMTYuMDE2IDAgMCAxLTE1LjYzMiAxMi42MDh6Ii8+PHBhdGggZmlsbD0iIzRBOTE5QiIgZD0iTTgwMC4zMiA2MjRINzM2YTE1LjkzNiAxNS45MzYgMCAwIDEtMTEuNTY4LTQuOTYgMTUuOTA0IDE1LjkwNCAwIDAgMS00LjQxNi0xMS43NmwxNS4yNjQtMzM2LjAxNmEzMi43MzYgMzIuNzM2IDAgMCAxIDY1LjQyNCAwbDE1LjEzNiAzMzIuODMyQTE2IDE2IDAgMCAxIDgwMC4zMiA2MjR6IG0tNDcuNTItMzJoMzAuNDQ4bC0xNC41MTItMzE5LjI5Nkw3NTIuOCA1OTJ6TTE0NCA4MTZjLTI2LjQ2NCAwLTQ4LTIxLjUzNi00OC00OHMyMS41MzYtNDggNDgtNDggNDggMjEuNTM2IDQ4IDQ4LTIxLjUzNiA0OC00OCA0OHogbTAtNjRhMTYgMTYgMCAxIDAgMC4wMTYgMzIuMDE2QTE2IDE2IDAgMCAwIDE0NCA3NTJ6TTI3MiA4MTZjLTI2LjQ2NCAwLTQ4LTIxLjUzNi00OC00OHMyMS41MzYtNDggNDgtNDggNDggMjEuNTM2IDQ4IDQ4LTIxLjUzNiA0OC00OCA0OHogbTAtNjRhMTYgMTYgMCAxIDAgMC4wMTYgMzIuMDE2QTE2IDE2IDAgMCAwIDI3MiA3NTJ6TTQwMCA4MTZjLTI2LjQ2NCAwLTQ4LTIxLjUzNi00OC00OHMyMS41MzYtNDggNDgtNDggNDggMjEuNTM2IDQ4IDQ4LTIxLjUzNiA0OC00OCA0OHogbTAtNjRhMTYgMTYgMCAxIDAgMC4wMTYgMzIuMDE2QTE2IDE2IDAgMCAwIDQwMCA3NTJ6TTk0NCA4ODBjLTQuMTYgMC04LjMyLTEuNzYtMTEuMzYtNC42NEExNi44IDE2LjggMCAwIDEgOTI4IDg2NGMwLTQuMzIgMS43Ni04LjMyIDQuNjQtMTEuMzYgNS45Mi01LjkyIDE2LjgtNS45MiAyMi43MiAwIDIuODggMy4wNCA0LjY0IDcuMiA0LjY0IDExLjM2cy0xLjc2IDguMzItNC42NCAxMS4zNmMtMy4wNCAyLjg4LTcuMiA0LjY0LTExLjM2IDQuNjR6TTg4MCA4ODBjLTQuMTYgMC04LjMyLTEuNzYtMTEuMzYtNC42NC0yLjg4LTMuMDQtNC42NC03LjItNC42NC0xMS4zNnMxLjc2LTguMzIgNC42NC0xMS4zNmM1LjkyLTUuOTIgMTYuNjQtNS45MiAyMi43MiAwIDIuODggMy4wNCA0LjY0IDcuMiA0LjY0IDExLjM2cy0xLjc2IDguMzItNC42NCAxMS4zNmMtMy4wNCAzLjA0LTcuMiA0LjY0LTExLjM2IDQuNjR6TTgxNiA4ODBjLTQuMzIgMC04LjMyLTEuNzYtMTEuMzYtNC42NC0yLjg4LTMuMDQtNC42NC03LjItNC42NC0xMS4zNnMxLjc2LTguMzIgNC42NC0xMS4zNmM1LjkyLTUuOTIgMTYuOC01LjkyIDIyLjcyIDAgMi44OCAzLjA0IDQuNjQgNy4yIDQuNjQgMTEuMzZzLTEuNzYgOC4zMi00LjY0IDExLjM2Yy0zLjA0IDIuODgtNy4yIDQuNjQtMTEuMzYgNC42NHpNNzUyIDg4MGMtNC4xNiAwLTguMzItMS43Ni0xMS4zNi00LjY0LTIuODgtMy4wNC00LjY0LTcuMi00LjY0LTExLjM2czEuNzYtOC4zMiA0LjY0LTExLjM2YzYuMDgtNS45MiAxNi42NC01LjkyIDIyLjcyIDAgMi44OCAzLjA0IDQuNjQgNy4yIDQuNjQgMTEuMzZzLTEuNzYgOC4zMi00LjY0IDExLjM2Yy0zLjA0IDIuODgtNy4yIDQuNjQtMTEuMzYgNC42NHpNOTQ0IDgxNmMtNC4xNiAwLTguMzItMS43Ni0xMS4zNi00LjY0QTE2LjggMTYuOCAwIDAgMSA5MjggODAwYzAtNC4zMiAxLjc2LTguMzIgNC42NC0xMS4zNiA1LjkyLTUuOTIgMTYuOC01LjkyIDIyLjcyIDAgMi44OCAzLjA0IDQuNjQgNy4yIDQuNjQgMTEuMzZzLTEuNzYgOC4zMi00LjY0IDExLjM2Yy0zLjA0IDIuODgtNy4yIDQuNjQtMTEuMzYgNC42NHpNODgwIDgxNmMtNC4xNiAwLTguMzItMS43Ni0xMS4zNi00LjY0QTE2LjggMTYuOCAwIDAgMSA4NjQgODAwYzAtNC4zMiAxLjc2LTguMzIgNC42NC0xMS4zNiA1LjkyLTUuOTIgMTYuNjQtNS45MiAyMi43MiAwIDIuODggMy4wNCA0LjY0IDcuMiA0LjY0IDExLjM2cy0xLjc2IDguMzItNC42NCAxMS4zNmMtMy4wNCAyLjg4LTcuMiA0LjY0LTExLjM2IDQuNjR6TTgxNiA4MTZjLTQuMTYgMC04LjMyLTEuNzYtMTEuMzYtNC42NC0yLjg4LTMuMDQtNC42NC03LjItNC42NC0xMS4zNnMxLjc2LTguMzIgNC42NC0xMS4zNmM1LjkyLTUuOTIgMTYuOC01LjkyIDIyLjcyIDAgMi44OCAzLjA0IDQuNjQgNy4yIDQuNjQgMTEuMzZzLTEuNzYgOC4zMi00LjY0IDExLjM2Yy0zLjA0IDIuODgtNy4yIDQuNjQtMTEuMzYgNC42NHpNOTQ0IDc1MmMtNC4xNiAwLTguMzItMS43Ni0xMS4zNi00LjY0QTE2LjggMTYuOCAwIDAgMSA5MjggNzM2YzAtNC4zMiAxLjc2LTguMzIgNC42NC0xMS4zNiA1LjkyLTUuOTIgMTYuOC01LjkyIDIyLjcyIDAgMi44OCAzLjA0IDQuNjQgNy4yIDQuNjQgMTEuMzZzLTEuNzYgOC4zMi00LjY0IDExLjM2Yy0zLjA0IDIuODgtNy4yIDQuNjQtMTEuMzYgNC42NHpNODgwIDc1MmMtNC4xNiAwLTguMzItMS43Ni0xMS4zNi00LjY0QTE2LjggMTYuOCAwIDAgMSA4NjQgNzM2YzAtNC4zMiAxLjc2LTguMzIgNC42NC0xMS4zNiA1LjkyLTUuOTIgMTYuNjQtNS45MiAyMi43MiAwIDIuODggMy4wNCA0LjY0IDcuMiA0LjY0IDExLjM2cy0xLjc2IDguMzItNC42NCAxMS4zNmMtMy4wNCAyLjg4LTcuMiA0LjY0LTExLjM2IDQuNjR6TTk0NCA2ODhjLTQuMTYgMC04LjMyLTEuNzYtMTEuMzYtNC42NGExNi4xNiAxNi4xNiAwIDAgMSAwLTIyLjcyYzUuOTItNS45MiAxNi44LTUuOTIgMjIuNzIgMCAyLjg4IDMuMDQgNC42NCA3LjA0IDQuNjQgMTEuMzYgMCA0LjE2LTEuNzYgOC4zMi00LjY0IDExLjM2LTMuMDQgMi44OC03LjIgNC42NC0xMS4zNiA0LjY0eiIvPjwvc3ZnPg==" parent="1" vertex="1">
          <mxGeometry x="789" y="429" width="119" height="119" as="geometry" />
        </mxCell>
        <mxCell id="q8PFXFKBB9XUrcmdDVlp-1" value="" style="shape=curlyBracket;whiteSpace=wrap;html=1;rounded=1;strokeColor=#F19C99;strokeWidth=5;fontSize=51;fillColor=none;" parent="1" vertex="1">
          <mxGeometry x="282" y="421" width="20" height="319" as="geometry" />
        </mxCell>
        <mxCell id="q8PFXFKBB9XUrcmdDVlp-2" value="&lt;font color=&quot;#f19c99&quot; style=&quot;font-size: 51px;&quot;&gt;局域网&lt;/font&gt;" style="text;html=1;strokeColor=none;fillColor=none;align=center;verticalAlign=middle;whiteSpace=wrap;rounded=0;" parent="1" vertex="1">
          <mxGeometry x="188" y="484" width="81" height="150" as="geometry" />
        </mxCell>
        <mxCell id="vTu2TDRHPCcL7mBVrJAy-3" value="" style="shape=image;verticalLabelPosition=bottom;labelBackgroundColor=default;verticalAlign=top;aspect=fixed;imageAspect=0;image=data:image/svg+xml,PHN2ZyB4bWxuczp4bGluaz0iaHR0cDovL3d3dy53My5vcmcvMTk5OS94bGluayIgeG1sbnM9Imh0dHA6Ly93d3cudzMub3JnLzIwMDAvc3ZnIiBoZWlnaHQ9IjIwMCIgd2lkdGg9IjIwMCIgdmVyc2lvbj0iMS4xIiB2aWV3Qm94PSIwIDAgMTAyNCAxMDI0IiBjbGFzcz0iaWNvbiI+PHBhdGggZmlsbD0iIzRBOTE5QiIgZD0iTTU3NiA5MzguNjY2NjY3SDM0MS4zMzMzMzNWMTgzLjg5MzMzM2E2My44IDYzLjggMCAwIDEgNTcuNjMzMzM0LTYzLjY4NjY2Nkw3MjUuMzMzMzMzIDg3LjU3MzMzM1Y3MDRhMjEuMzMzMzMzIDIxLjMzMzMzMyAwIDAgMCA0Mi42NjY2NjcgMFYyNTZoMTI4djQ0OGEyMS4zMzMzMzMgMjEuMzMzMzMzIDAgMCAwIDQyLjY2NjY2NyAwVjI1NmE0Mi43MTMzMzMgNDIuNzEzMzMzIDAgMCAwLTQyLjY2NjY2Ny00Mi42NjY2NjdoLTEyOFY2NGEyMS4zMzMzMzMgMjEuMzMzMzMzIDAgMCAwLTIzLjQ1MzMzMy0yMS4yMjY2NjdsLTM0OS44MjY2NjcgMzQuOThBMTA2LjY2NjY2NyAxMDYuNjY2NjY3IDAgMCAwIDI5OC42NjY2NjcgMTgzLjg5MzMzM1Y5MzguNjY2NjY3SDE3MC42NjY2Njd2LTg5LjVjMTAuODczMzMzLTQuNTI2NjY3IDIwLjE0LTEyLjY2NjY2NyAyNy4wNC0yMy45NTMzMzRDMjA4LjIyIDgwOCAyMTMuMzMzMzMzIDc4NC4wNiAyMTMuMzMzMzMzIDc1MmMwLTMxLjItNS02Ni42NjY2NjctMTMuMzgtOTQuODQtNC42MTMzMzMtMTUuNTEzMzMzLTEwLTI4LjE0LTE2LjA5MzMzMy0zNy41MjY2NjdDMTcxLjk0NjY2NyA2MDEuMiAxNTguNTA2NjY3IDU5Ny4zMzMzMzMgMTQ5LjMzMzMzMyA1OTcuMzMzMzMzcy0yMi42MTMzMzMgMy44NjY2NjctMzQuNTI2NjY2IDIyLjNjLTYuMDY2NjY3IDkuMzg2NjY3LTExLjQ4IDIyLTE2LjA5MzMzNCAzNy41MjY2NjdDOTAuMzMzMzMzIDY4NS4zMzMzMzMgODUuMzMzMzMzIDcyMC44IDg1LjMzMzMzMyA3NTJjMCAzMi4wNiA1LjExMzMzMyA1NiAxNS42MjY2NjcgNzMuMjEzMzMzIDYuOSAxMS4yOTMzMzMgMTYuMTY2NjY3IDE5LjQyNjY2NyAyNy4wNCAyMy45NTMzMzRWOTM4LjY2NjY2N0g2NGEyMS4zMzMzMzMgMjEuMzMzMzMzIDAgMCAwIDAgNDIuNjY2NjY2aDUxMmEyMS4zMzMzMzMgMjEuMzMzMzMzIDAgMCAwIDAtNDIuNjY2NjY2eiBtLTQzOC44MzMzMzMtMjYwLjQ0YzQuMzA2NjY3LTE3IDguODItMjcuNDQ2NjY3IDEyLjE2NjY2Ni0zMy4zMzMzMzQgMy4zMzMzMzMgNS44NzMzMzMgNy44NiAxNi4zMiAxMi4xNjY2NjcgMzMuMzMzMzM0QTMxNC4yNjY2NjcgMzE0LjI2NjY2NyAwIDAgMSAxNzAuNjY2NjY3IDc1MmMwIDEzLjc2LTEuNTQgNTguNjY2NjY3LTIxLjMzMzMzNCA1OC42NjY2NjdzLTIxLjMzMzMzMy00NC45MDY2NjctMjEuMzMzMzMzLTU4LjY2NjY2N2EzMTQuMjY2NjY3IDMxNC4yNjY2NjcgMCAwIDEgOS4xNjY2NjctNzMuNzczMzMzek00NjkuMzMzMzMzIDI5OC42NjY2NjdoLTQyLjY2NjY2NlYyMTMuMzMzMzMzaDQyLjY2NjY2NnogbTg1LjMzMzMzNCAwaC00Mi42NjY2NjdWMjEzLjMzMzMzM2g0Mi42NjY2Njd6IG04NS4zMzMzMzMgMGgtNDIuNjY2NjY3VjIxMy4zMzMzMzNoNDIuNjY2NjY3ek00NjkuMzMzMzMzIDQyNi42NjY2NjdoLTQyLjY2NjY2NlYzNDEuMzMzMzMzaDQyLjY2NjY2NnogbTg1LjMzMzMzNCAwaC00Mi42NjY2NjdWMzQxLjMzMzMzM2g0Mi42NjY2Njd6IG04NS4zMzMzMzMgMGgtNDIuNjY2NjY3VjM0MS4zMzMzMzNoNDIuNjY2NjY3ek00NjkuMzMzMzMzIDU1NC42NjY2NjdoLTQyLjY2NjY2NlY0NjkuMzMzMzMzaDQyLjY2NjY2NnogbTg1LjMzMzMzNCAwaC00Mi42NjY2NjdWNDY5LjMzMzMzM2g0Mi42NjY2Njd6IG00Mi42NjY2NjYtODUuMzMzMzM0aDQyLjY2NjY2N3Y4NS4zMzMzMzRoLTQyLjY2NjY2N3ogbS0xMjggMjEzLjMzMzMzNGgtNDIuNjY2NjY2VjU5Ny4zMzMzMzNoNDIuNjY2NjY2eiBtODUuMzMzMzM0IDBoLTQyLjY2NjY2N1Y1OTcuMzMzMzMzaDQyLjY2NjY2N3ogbTg1LjMzMzMzMyAwaC00Mi42NjY2NjdWNTk3LjMzMzMzM2g0Mi42NjY2Njd6IG0tMjEzLjMzMzMzMyA0Mi42NjY2NjZoNDIuNjY2NjY2djg1LjMzMzMzNGgtNDIuNjY2NjY2eiBtODUuMzMzMzMzIDBoNDIuNjY2NjY3djg1LjMzMzMzNGgtNDIuNjY2NjY3eiBtMzQxLjMzMzMzMy0yOTguNjY2NjY2aC00Mi42NjY2NjZWMzQxLjMzMzMzM2g0Mi42NjY2NjZ6IG0wIDEyOGgtNDIuNjY2NjY2VjQ2OS4zMzMzMzNoNDIuNjY2NjY2eiBtLTQyLjY2NjY2NiA0Mi42NjY2NjZoNDIuNjY2NjY2djg1LjMzMzMzNGgtNDIuNjY2NjY2eiBtMTUwLjEyIDI0My4xMzMzMzRhODUuNTEzMzMzIDg1LjUxMzMzMyAwIDAgMC00MS4wMjY2NjctMjYuNDMzMzM0IDEwNi42NjY2NjcgMTA2LjY2NjY2NyAwIDAgMC0xNzMuMDkzMzMzLTMuMzMzMzMzaC0yMS4zMzMzMzRhODUuMzMzMzMzIDg1LjMzMzMzMyAwIDAgMCAwIDE3MC42NjY2NjdoMTcwLjY2NjY2N2E4NS4zMzMzMzMgODUuMzMzMzMzIDAgMCAwIDY0Ljc4NjY2Ny0xNDAuODY2NjY3ek04OTYgOTM4LjY2NjY2N2gtMTcwLjY2NjY2N2E0Mi42NjY2NjcgNDIuNjY2NjY3IDAgMCAxIDAtODUuMzMzMzM0aDMyLjc1MzMzNGEyMS4zMzMzMzMgMjEuMzMzMzMzIDAgMCAwIDE4LjQ2NjY2Ni0xMC42NjY2NjYgNjQgNjQgMCAwIDEgMTExLjI1MzMzNCAwLjY2NjY2NiAyMS4zMzMzMzMgMjEuMzMzMzMzIDAgMCAwIDE1LjE0NjY2NiAxMC41ODY2NjdBNDIuNjY2NjY3IDQyLjY2NjY2NyAwIDAgMSA4OTYgOTM4LjY2NjY2N3oiLz48L3N2Zz4=;" parent="1" vertex="1">
          <mxGeometry x="343.5" y="605" width="123" height="123" as="geometry" />
        </mxCell>
        <mxCell id="76pOBQbfIAmx4sFAEdD8-23" style="edgeStyle=orthogonalEdgeStyle;rounded=1;orthogonalLoop=1;jettySize=auto;html=1;exitX=0.5;exitY=1;exitDx=0;exitDy=0;entryX=0.5;entryY=0;entryDx=0;entryDy=0;fontSize=26;fontColor=#4A919B;strokeWidth=3;dashed=1;strokeColor=#4A919B;" parent="1" source="vTu2TDRHPCcL7mBVrJAy-4" target="76pOBQbfIAmx4sFAEdD8-4" edge="1">
          <mxGeometry relative="1" as="geometry" />
        </mxCell>
        <mxCell id="76pOBQbfIAmx4sFAEdD8-24" style="edgeStyle=orthogonalEdgeStyle;rounded=1;orthogonalLoop=1;jettySize=auto;html=1;exitX=0.5;exitY=1;exitDx=0;exitDy=0;entryX=0.5;entryY=0;entryDx=0;entryDy=0;fontSize=26;fontColor=#4A919B;strokeWidth=3;dashed=1;strokeColor=#4A919B;" parent="1" source="vTu2TDRHPCcL7mBVrJAy-4" target="76pOBQbfIAmx4sFAEdD8-12" edge="1">
          <mxGeometry relative="1" as="geometry" />
        </mxCell>
        <mxCell id="vTu2TDRHPCcL7mBVrJAy-4" value="" style="shape=image;verticalLabelPosition=bottom;labelBackgroundColor=default;verticalAlign=top;aspect=fixed;imageAspect=0;image=data:image/svg+xml,PHN2ZyB4bWxuczp4bGluaz0iaHR0cDovL3d3dy53My5vcmcvMTk5OS94bGluayIgeG1sbnM9Imh0dHA6Ly93d3cudzMub3JnLzIwMDAvc3ZnIiBoZWlnaHQ9IjIwMCIgd2lkdGg9IjIwMCIgdmVyc2lvbj0iMS4xIiB2aWV3Qm94PSIwIDAgMTAyNCAxMDI0IiBjbGFzcz0iaWNvbiI+PHBhdGggZmlsbD0iIzRBOTE5QiIgZD0iTTU3NiA5MzguNjY2NjY3SDM0MS4zMzMzMzNWMTgzLjg5MzMzM2E2My44IDYzLjggMCAwIDEgNTcuNjMzMzM0LTYzLjY4NjY2Nkw3MjUuMzMzMzMzIDg3LjU3MzMzM1Y3MDRhMjEuMzMzMzMzIDIxLjMzMzMzMyAwIDAgMCA0Mi42NjY2NjcgMFYyNTZoMTI4djQ0OGEyMS4zMzMzMzMgMjEuMzMzMzMzIDAgMCAwIDQyLjY2NjY2NyAwVjI1NmE0Mi43MTMzMzMgNDIuNzEzMzMzIDAgMCAwLTQyLjY2NjY2Ny00Mi42NjY2NjdoLTEyOFY2NGEyMS4zMzMzMzMgMjEuMzMzMzMzIDAgMCAwLTIzLjQ1MzMzMy0yMS4yMjY2NjdsLTM0OS44MjY2NjcgMzQuOThBMTA2LjY2NjY2NyAxMDYuNjY2NjY3IDAgMCAwIDI5OC42NjY2NjcgMTgzLjg5MzMzM1Y5MzguNjY2NjY3SDE3MC42NjY2Njd2LTg5LjVjMTAuODczMzMzLTQuNTI2NjY3IDIwLjE0LTEyLjY2NjY2NyAyNy4wNC0yMy45NTMzMzRDMjA4LjIyIDgwOCAyMTMuMzMzMzMzIDc4NC4wNiAyMTMuMzMzMzMzIDc1MmMwLTMxLjItNS02Ni42NjY2NjctMTMuMzgtOTQuODQtNC42MTMzMzMtMTUuNTEzMzMzLTEwLTI4LjE0LTE2LjA5MzMzMy0zNy41MjY2NjdDMTcxLjk0NjY2NyA2MDEuMiAxNTguNTA2NjY3IDU5Ny4zMzMzMzMgMTQ5LjMzMzMzMyA1OTcuMzMzMzMzcy0yMi42MTMzMzMgMy44NjY2NjctMzQuNTI2NjY2IDIyLjNjLTYuMDY2NjY3IDkuMzg2NjY3LTExLjQ4IDIyLTE2LjA5MzMzNCAzNy41MjY2NjdDOTAuMzMzMzMzIDY4NS4zMzMzMzMgODUuMzMzMzMzIDcyMC44IDg1LjMzMzMzMyA3NTJjMCAzMi4wNiA1LjExMzMzMyA1NiAxNS42MjY2NjcgNzMuMjEzMzMzIDYuOSAxMS4yOTMzMzMgMTYuMTY2NjY3IDE5LjQyNjY2NyAyNy4wNCAyMy45NTMzMzRWOTM4LjY2NjY2N0g2NGEyMS4zMzMzMzMgMjEuMzMzMzMzIDAgMCAwIDAgNDIuNjY2NjY2aDUxMmEyMS4zMzMzMzMgMjEuMzMzMzMzIDAgMCAwIDAtNDIuNjY2NjY2eiBtLTQzOC44MzMzMzMtMjYwLjQ0YzQuMzA2NjY3LTE3IDguODItMjcuNDQ2NjY3IDEyLjE2NjY2Ni0zMy4zMzMzMzQgMy4zMzMzMzMgNS44NzMzMzMgNy44NiAxNi4zMiAxMi4xNjY2NjcgMzMuMzMzMzM0QTMxNC4yNjY2NjcgMzE0LjI2NjY2NyAwIDAgMSAxNzAuNjY2NjY3IDc1MmMwIDEzLjc2LTEuNTQgNTguNjY2NjY3LTIxLjMzMzMzNCA1OC42NjY2NjdzLTIxLjMzMzMzMy00NC45MDY2NjctMjEuMzMzMzMzLTU4LjY2NjY2N2EzMTQuMjY2NjY3IDMxNC4yNjY2NjcgMCAwIDEgOS4xNjY2NjctNzMuNzczMzMzek00NjkuMzMzMzMzIDI5OC42NjY2NjdoLTQyLjY2NjY2NlYyMTMuMzMzMzMzaDQyLjY2NjY2NnogbTg1LjMzMzMzNCAwaC00Mi42NjY2NjdWMjEzLjMzMzMzM2g0Mi42NjY2Njd6IG04NS4zMzMzMzMgMGgtNDIuNjY2NjY3VjIxMy4zMzMzMzNoNDIuNjY2NjY3ek00NjkuMzMzMzMzIDQyNi42NjY2NjdoLTQyLjY2NjY2NlYzNDEuMzMzMzMzaDQyLjY2NjY2NnogbTg1LjMzMzMzNCAwaC00Mi42NjY2NjdWMzQxLjMzMzMzM2g0Mi42NjY2Njd6IG04NS4zMzMzMzMgMGgtNDIuNjY2NjY3VjM0MS4zMzMzMzNoNDIuNjY2NjY3ek00NjkuMzMzMzMzIDU1NC42NjY2NjdoLTQyLjY2NjY2NlY0NjkuMzMzMzMzaDQyLjY2NjY2NnogbTg1LjMzMzMzNCAwaC00Mi42NjY2NjdWNDY5LjMzMzMzM2g0Mi42NjY2Njd6IG00Mi42NjY2NjYtODUuMzMzMzM0aDQyLjY2NjY2N3Y4NS4zMzMzMzRoLTQyLjY2NjY2N3ogbS0xMjggMjEzLjMzMzMzNGgtNDIuNjY2NjY2VjU5Ny4zMzMzMzNoNDIuNjY2NjY2eiBtODUuMzMzMzM0IDBoLTQyLjY2NjY2N1Y1OTcuMzMzMzMzaDQyLjY2NjY2N3ogbTg1LjMzMzMzMyAwaC00Mi42NjY2NjdWNTk3LjMzMzMzM2g0Mi42NjY2Njd6IG0tMjEzLjMzMzMzMyA0Mi42NjY2NjZoNDIuNjY2NjY2djg1LjMzMzMzNGgtNDIuNjY2NjY2eiBtODUuMzMzMzMzIDBoNDIuNjY2NjY3djg1LjMzMzMzNGgtNDIuNjY2NjY3eiBtMzQxLjMzMzMzMy0yOTguNjY2NjY2aC00Mi42NjY2NjZWMzQxLjMzMzMzM2g0Mi42NjY2NjZ6IG0wIDEyOGgtNDIuNjY2NjY2VjQ2OS4zMzMzMzNoNDIuNjY2NjY2eiBtLTQyLjY2NjY2NiA0Mi42NjY2NjZoNDIuNjY2NjY2djg1LjMzMzMzNGgtNDIuNjY2NjY2eiBtMTUwLjEyIDI0My4xMzMzMzRhODUuNTEzMzMzIDg1LjUxMzMzMyAwIDAgMC00MS4wMjY2NjctMjYuNDMzMzM0IDEwNi42NjY2NjcgMTA2LjY2NjY2NyAwIDAgMC0xNzMuMDkzMzMzLTMuMzMzMzMzaC0yMS4zMzMzMzRhODUuMzMzMzMzIDg1LjMzMzMzMyAwIDAgMCAwIDE3MC42NjY2NjdoMTcwLjY2NjY2N2E4NS4zMzMzMzMgODUuMzMzMzMzIDAgMCAwIDY0Ljc4NjY2Ny0xNDAuODY2NjY3ek04OTYgOTM4LjY2NjY2N2gtMTcwLjY2NjY2N2E0Mi42NjY2NjcgNDIuNjY2NjY3IDAgMCAxIDAtODUuMzMzMzM0aDMyLjc1MzMzNGEyMS4zMzMzMzMgMjEuMzMzMzMzIDAgMCAwIDE4LjQ2NjY2Ni0xMC42NjY2NjYgNjQgNjQgMCAwIDEgMTExLjI1MzMzNCAwLjY2NjY2NiAyMS4zMzMzMzMgMjEuMzMzMzMzIDAgMCAwIDE1LjE0NjY2NiAxMC41ODY2NjdBNDIuNjY2NjY3IDQyLjY2NjY2NyAwIDAgMSA4OTYgOTM4LjY2NjY2N3oiLz48L3N2Zz4=;" parent="1" vertex="1">
          <mxGeometry x="503" y="605" width="123" height="123" as="geometry" />
        </mxCell>
        <mxCell id="vTu2TDRHPCcL7mBVrJAy-5" value="" style="shape=image;verticalLabelPosition=bottom;labelBackgroundColor=default;verticalAlign=top;aspect=fixed;imageAspect=0;image=data:image/svg+xml,PHN2ZyB4bWxuczp4bGluaz0iaHR0cDovL3d3dy53My5vcmcvMTk5OS94bGluayIgeG1sbnM9Imh0dHA6Ly93d3cudzMub3JnLzIwMDAvc3ZnIiBoZWlnaHQ9IjIwMCIgd2lkdGg9IjIwMCIgdmVyc2lvbj0iMS4xIiB2aWV3Qm94PSIwIDAgMTAyNCAxMDI0IiBjbGFzcz0iaWNvbiI+PHBhdGggZmlsbD0iIzRBOTE5QiIgZD0iTTU3NiA5MzguNjY2NjY3SDM0MS4zMzMzMzNWMTgzLjg5MzMzM2E2My44IDYzLjggMCAwIDEgNTcuNjMzMzM0LTYzLjY4NjY2Nkw3MjUuMzMzMzMzIDg3LjU3MzMzM1Y3MDRhMjEuMzMzMzMzIDIxLjMzMzMzMyAwIDAgMCA0Mi42NjY2NjcgMFYyNTZoMTI4djQ0OGEyMS4zMzMzMzMgMjEuMzMzMzMzIDAgMCAwIDQyLjY2NjY2NyAwVjI1NmE0Mi43MTMzMzMgNDIuNzEzMzMzIDAgMCAwLTQyLjY2NjY2Ny00Mi42NjY2NjdoLTEyOFY2NGEyMS4zMzMzMzMgMjEuMzMzMzMzIDAgMCAwLTIzLjQ1MzMzMy0yMS4yMjY2NjdsLTM0OS44MjY2NjcgMzQuOThBMTA2LjY2NjY2NyAxMDYuNjY2NjY3IDAgMCAwIDI5OC42NjY2NjcgMTgzLjg5MzMzM1Y5MzguNjY2NjY3SDE3MC42NjY2Njd2LTg5LjVjMTAuODczMzMzLTQuNTI2NjY3IDIwLjE0LTEyLjY2NjY2NyAyNy4wNC0yMy45NTMzMzRDMjA4LjIyIDgwOCAyMTMuMzMzMzMzIDc4NC4wNiAyMTMuMzMzMzMzIDc1MmMwLTMxLjItNS02Ni42NjY2NjctMTMuMzgtOTQuODQtNC42MTMzMzMtMTUuNTEzMzMzLTEwLTI4LjE0LTE2LjA5MzMzMy0zNy41MjY2NjdDMTcxLjk0NjY2NyA2MDEuMiAxNTguNTA2NjY3IDU5Ny4zMzMzMzMgMTQ5LjMzMzMzMyA1OTcuMzMzMzMzcy0yMi42MTMzMzMgMy44NjY2NjctMzQuNTI2NjY2IDIyLjNjLTYuMDY2NjY3IDkuMzg2NjY3LTExLjQ4IDIyLTE2LjA5MzMzNCAzNy41MjY2NjdDOTAuMzMzMzMzIDY4NS4zMzMzMzMgODUuMzMzMzMzIDcyMC44IDg1LjMzMzMzMyA3NTJjMCAzMi4wNiA1LjExMzMzMyA1NiAxNS42MjY2NjcgNzMuMjEzMzMzIDYuOSAxMS4yOTMzMzMgMTYuMTY2NjY3IDE5LjQyNjY2NyAyNy4wNCAyMy45NTMzMzRWOTM4LjY2NjY2N0g2NGEyMS4zMzMzMzMgMjEuMzMzMzMzIDAgMCAwIDAgNDIuNjY2NjY2aDUxMmEyMS4zMzMzMzMgMjEuMzMzMzMzIDAgMCAwIDAtNDIuNjY2NjY2eiBtLTQzOC44MzMzMzMtMjYwLjQ0YzQuMzA2NjY3LTE3IDguODItMjcuNDQ2NjY3IDEyLjE2NjY2Ni0zMy4zMzMzMzQgMy4zMzMzMzMgNS44NzMzMzMgNy44NiAxNi4zMiAxMi4xNjY2NjcgMzMuMzMzMzM0QTMxNC4yNjY2NjcgMzE0LjI2NjY2NyAwIDAgMSAxNzAuNjY2NjY3IDc1MmMwIDEzLjc2LTEuNTQgNTguNjY2NjY3LTIxLjMzMzMzNCA1OC42NjY2NjdzLTIxLjMzMzMzMy00NC45MDY2NjctMjEuMzMzMzMzLTU4LjY2NjY2N2EzMTQuMjY2NjY3IDMxNC4yNjY2NjcgMCAwIDEgOS4xNjY2NjctNzMuNzczMzMzek00NjkuMzMzMzMzIDI5OC42NjY2NjdoLTQyLjY2NjY2NlYyMTMuMzMzMzMzaDQyLjY2NjY2NnogbTg1LjMzMzMzNCAwaC00Mi42NjY2NjdWMjEzLjMzMzMzM2g0Mi42NjY2Njd6IG04NS4zMzMzMzMgMGgtNDIuNjY2NjY3VjIxMy4zMzMzMzNoNDIuNjY2NjY3ek00NjkuMzMzMzMzIDQyNi42NjY2NjdoLTQyLjY2NjY2NlYzNDEuMzMzMzMzaDQyLjY2NjY2NnogbTg1LjMzMzMzNCAwaC00Mi42NjY2NjdWMzQxLjMzMzMzM2g0Mi42NjY2Njd6IG04NS4zMzMzMzMgMGgtNDIuNjY2NjY3VjM0MS4zMzMzMzNoNDIuNjY2NjY3ek00NjkuMzMzMzMzIDU1NC42NjY2NjdoLTQyLjY2NjY2NlY0NjkuMzMzMzMzaDQyLjY2NjY2NnogbTg1LjMzMzMzNCAwaC00Mi42NjY2NjdWNDY5LjMzMzMzM2g0Mi42NjY2Njd6IG00Mi42NjY2NjYtODUuMzMzMzM0aDQyLjY2NjY2N3Y4NS4zMzMzMzRoLTQyLjY2NjY2N3ogbS0xMjggMjEzLjMzMzMzNGgtNDIuNjY2NjY2VjU5Ny4zMzMzMzNoNDIuNjY2NjY2eiBtODUuMzMzMzM0IDBoLTQyLjY2NjY2N1Y1OTcuMzMzMzMzaDQyLjY2NjY2N3ogbTg1LjMzMzMzMyAwaC00Mi42NjY2NjdWNTk3LjMzMzMzM2g0Mi42NjY2Njd6IG0tMjEzLjMzMzMzMyA0Mi42NjY2NjZoNDIuNjY2NjY2djg1LjMzMzMzNGgtNDIuNjY2NjY2eiBtODUuMzMzMzMzIDBoNDIuNjY2NjY3djg1LjMzMzMzNGgtNDIuNjY2NjY3eiBtMzQxLjMzMzMzMy0yOTguNjY2NjY2aC00Mi42NjY2NjZWMzQxLjMzMzMzM2g0Mi42NjY2NjZ6IG0wIDEyOGgtNDIuNjY2NjY2VjQ2OS4zMzMzMzNoNDIuNjY2NjY2eiBtLTQyLjY2NjY2NiA0Mi42NjY2NjZoNDIuNjY2NjY2djg1LjMzMzMzNGgtNDIuNjY2NjY2eiBtMTUwLjEyIDI0My4xMzMzMzRhODUuNTEzMzMzIDg1LjUxMzMzMyAwIDAgMC00MS4wMjY2NjctMjYuNDMzMzM0IDEwNi42NjY2NjcgMTA2LjY2NjY2NyAwIDAgMC0xNzMuMDkzMzMzLTMuMzMzMzMzaC0yMS4zMzMzMzRhODUuMzMzMzMzIDg1LjMzMzMzMyAwIDAgMCAwIDE3MC42NjY2NjdoMTcwLjY2NjY2N2E4NS4zMzMzMzMgODUuMzMzMzMzIDAgMCAwIDY0Ljc4NjY2Ny0xNDAuODY2NjY3ek04OTYgOTM4LjY2NjY2N2gtMTcwLjY2NjY2N2E0Mi42NjY2NjcgNDIuNjY2NjY3IDAgMCAxIDAtODUuMzMzMzM0aDMyLjc1MzMzNGEyMS4zMzMzMzMgMjEuMzMzMzMzIDAgMCAwIDE4LjQ2NjY2Ni0xMC42NjY2NjYgNjQgNjQgMCAwIDEgMTExLjI1MzMzNCAwLjY2NjY2NiAyMS4zMzMzMzMgMjEuMzMzMzMzIDAgMCAwIDE1LjE0NjY2NiAxMC41ODY2NjdBNDIuNjY2NjY3IDQyLjY2NjY2NyAwIDAgMSA4OTYgOTM4LjY2NjY2N3oiLz48L3N2Zz4=;" parent="1" vertex="1">
          <mxGeometry x="706" y="605" width="123" height="123" as="geometry" />
        </mxCell>
        <mxCell id="vTu2TDRHPCcL7mBVrJAy-6" value="" style="shape=image;verticalLabelPosition=bottom;labelBackgroundColor=default;verticalAlign=top;aspect=fixed;imageAspect=0;image=data:image/svg+xml,PHN2ZyB4bWxuczp4bGluaz0iaHR0cDovL3d3dy53My5vcmcvMTk5OS94bGluayIgeG1sbnM9Imh0dHA6Ly93d3cudzMub3JnLzIwMDAvc3ZnIiBoZWlnaHQ9IjIwMCIgd2lkdGg9IjIwMCIgdmVyc2lvbj0iMS4xIiB2aWV3Qm94PSIwIDAgMTAyNCAxMDI0IiBjbGFzcz0iaWNvbiI+PHBhdGggZmlsbD0iIzRBOTE5QiIgZD0iTTU3NiA5MzguNjY2NjY3SDM0MS4zMzMzMzNWMTgzLjg5MzMzM2E2My44IDYzLjggMCAwIDEgNTcuNjMzMzM0LTYzLjY4NjY2Nkw3MjUuMzMzMzMzIDg3LjU3MzMzM1Y3MDRhMjEuMzMzMzMzIDIxLjMzMzMzMyAwIDAgMCA0Mi42NjY2NjcgMFYyNTZoMTI4djQ0OGEyMS4zMzMzMzMgMjEuMzMzMzMzIDAgMCAwIDQyLjY2NjY2NyAwVjI1NmE0Mi43MTMzMzMgNDIuNzEzMzMzIDAgMCAwLTQyLjY2NjY2Ny00Mi42NjY2NjdoLTEyOFY2NGEyMS4zMzMzMzMgMjEuMzMzMzMzIDAgMCAwLTIzLjQ1MzMzMy0yMS4yMjY2NjdsLTM0OS44MjY2NjcgMzQuOThBMTA2LjY2NjY2NyAxMDYuNjY2NjY3IDAgMCAwIDI5OC42NjY2NjcgMTgzLjg5MzMzM1Y5MzguNjY2NjY3SDE3MC42NjY2Njd2LTg5LjVjMTAuODczMzMzLTQuNTI2NjY3IDIwLjE0LTEyLjY2NjY2NyAyNy4wNC0yMy45NTMzMzRDMjA4LjIyIDgwOCAyMTMuMzMzMzMzIDc4NC4wNiAyMTMuMzMzMzMzIDc1MmMwLTMxLjItNS02Ni42NjY2NjctMTMuMzgtOTQuODQtNC42MTMzMzMtMTUuNTEzMzMzLTEwLTI4LjE0LTE2LjA5MzMzMy0zNy41MjY2NjdDMTcxLjk0NjY2NyA2MDEuMiAxNTguNTA2NjY3IDU5Ny4zMzMzMzMgMTQ5LjMzMzMzMyA1OTcuMzMzMzMzcy0yMi42MTMzMzMgMy44NjY2NjctMzQuNTI2NjY2IDIyLjNjLTYuMDY2NjY3IDkuMzg2NjY3LTExLjQ4IDIyLTE2LjA5MzMzNCAzNy41MjY2NjdDOTAuMzMzMzMzIDY4NS4zMzMzMzMgODUuMzMzMzMzIDcyMC44IDg1LjMzMzMzMyA3NTJjMCAzMi4wNiA1LjExMzMzMyA1NiAxNS42MjY2NjcgNzMuMjEzMzMzIDYuOSAxMS4yOTMzMzMgMTYuMTY2NjY3IDE5LjQyNjY2NyAyNy4wNCAyMy45NTMzMzRWOTM4LjY2NjY2N0g2NGEyMS4zMzMzMzMgMjEuMzMzMzMzIDAgMCAwIDAgNDIuNjY2NjY2aDUxMmEyMS4zMzMzMzMgMjEuMzMzMzMzIDAgMCAwIDAtNDIuNjY2NjY2eiBtLTQzOC44MzMzMzMtMjYwLjQ0YzQuMzA2NjY3LTE3IDguODItMjcuNDQ2NjY3IDEyLjE2NjY2Ni0zMy4zMzMzMzQgMy4zMzMzMzMgNS44NzMzMzMgNy44NiAxNi4zMiAxMi4xNjY2NjcgMzMuMzMzMzM0QTMxNC4yNjY2NjcgMzE0LjI2NjY2NyAwIDAgMSAxNzAuNjY2NjY3IDc1MmMwIDEzLjc2LTEuNTQgNTguNjY2NjY3LTIxLjMzMzMzNCA1OC42NjY2NjdzLTIxLjMzMzMzMy00NC45MDY2NjctMjEuMzMzMzMzLTU4LjY2NjY2N2EzMTQuMjY2NjY3IDMxNC4yNjY2NjcgMCAwIDEgOS4xNjY2NjctNzMuNzczMzMzek00NjkuMzMzMzMzIDI5OC42NjY2NjdoLTQyLjY2NjY2NlYyMTMuMzMzMzMzaDQyLjY2NjY2NnogbTg1LjMzMzMzNCAwaC00Mi42NjY2NjdWMjEzLjMzMzMzM2g0Mi42NjY2Njd6IG04NS4zMzMzMzMgMGgtNDIuNjY2NjY3VjIxMy4zMzMzMzNoNDIuNjY2NjY3ek00NjkuMzMzMzMzIDQyNi42NjY2NjdoLTQyLjY2NjY2NlYzNDEuMzMzMzMzaDQyLjY2NjY2NnogbTg1LjMzMzMzNCAwaC00Mi42NjY2NjdWMzQxLjMzMzMzM2g0Mi42NjY2Njd6IG04NS4zMzMzMzMgMGgtNDIuNjY2NjY3VjM0MS4zMzMzMzNoNDIuNjY2NjY3ek00NjkuMzMzMzMzIDU1NC42NjY2NjdoLTQyLjY2NjY2NlY0NjkuMzMzMzMzaDQyLjY2NjY2NnogbTg1LjMzMzMzNCAwaC00Mi42NjY2NjdWNDY5LjMzMzMzM2g0Mi42NjY2Njd6IG00Mi42NjY2NjYtODUuMzMzMzM0aDQyLjY2NjY2N3Y4NS4zMzMzMzRoLTQyLjY2NjY2N3ogbS0xMjggMjEzLjMzMzMzNGgtNDIuNjY2NjY2VjU5Ny4zMzMzMzNoNDIuNjY2NjY2eiBtODUuMzMzMzM0IDBoLTQyLjY2NjY2N1Y1OTcuMzMzMzMzaDQyLjY2NjY2N3ogbTg1LjMzMzMzMyAwaC00Mi42NjY2NjdWNTk3LjMzMzMzM2g0Mi42NjY2Njd6IG0tMjEzLjMzMzMzMyA0Mi42NjY2NjZoNDIuNjY2NjY2djg1LjMzMzMzNGgtNDIuNjY2NjY2eiBtODUuMzMzMzMzIDBoNDIuNjY2NjY3djg1LjMzMzMzNGgtNDIuNjY2NjY3eiBtMzQxLjMzMzMzMy0yOTguNjY2NjY2aC00Mi42NjY2NjZWMzQxLjMzMzMzM2g0Mi42NjY2NjZ6IG0wIDEyOGgtNDIuNjY2NjY2VjQ2OS4zMzMzMzNoNDIuNjY2NjY2eiBtLTQyLjY2NjY2NiA0Mi42NjY2NjZoNDIuNjY2NjY2djg1LjMzMzMzNGgtNDIuNjY2NjY2eiBtMTUwLjEyIDI0My4xMzMzMzRhODUuNTEzMzMzIDg1LjUxMzMzMyAwIDAgMC00MS4wMjY2NjctMjYuNDMzMzM0IDEwNi42NjY2NjcgMTA2LjY2NjY2NyAwIDAgMC0xNzMuMDkzMzMzLTMuMzMzMzMzaC0yMS4zMzMzMzRhODUuMzMzMzMzIDg1LjMzMzMzMyAwIDAgMCAwIDE3MC42NjY2NjdoMTcwLjY2NjY2N2E4NS4zMzMzMzMgODUuMzMzMzMzIDAgMCAwIDY0Ljc4NjY2Ny0xNDAuODY2NjY3ek04OTYgOTM4LjY2NjY2N2gtMTcwLjY2NjY2N2E0Mi42NjY2NjcgNDIuNjY2NjY3IDAgMCAxIDAtODUuMzMzMzM0aDMyLjc1MzMzNGEyMS4zMzMzMzMgMjEuMzMzMzMzIDAgMCAwIDE4LjQ2NjY2Ni0xMC42NjY2NjYgNjQgNjQgMCAwIDEgMTExLjI1MzMzNCAwLjY2NjY2NiAyMS4zMzMzMzMgMjEuMzMzMzMzIDAgMCAwIDE1LjE0NjY2NiAxMC41ODY2NjdBNDIuNjY2NjY3IDQyLjY2NjY2NyAwIDAgMSA4OTYgOTM4LjY2NjY2N3oiLz48L3N2Zz4=;" parent="1" vertex="1">
          <mxGeometry x="859" y="605" width="123" height="123" as="geometry" />
        </mxCell>
        <mxCell id="76pOBQbfIAmx4sFAEdD8-1" value="&lt;font style=&quot;font-size: 35px;&quot; color=&quot;#4a919b&quot;&gt;公网IP&lt;/font&gt;" style="text;html=1;strokeColor=none;fillColor=none;align=center;verticalAlign=middle;whiteSpace=wrap;rounded=0;" parent="1" vertex="1">
          <mxGeometry x="431" y="377" width="125" height="30" as="geometry" />
        </mxCell>
        <mxCell id="76pOBQbfIAmx4sFAEdD8-2" value="&lt;font style=&quot;font-size: 35px;&quot; color=&quot;#4a919b&quot;&gt;公网IP&lt;/font&gt;" style="text;html=1;strokeColor=none;fillColor=none;align=center;verticalAlign=middle;whiteSpace=wrap;rounded=0;" parent="1" vertex="1">
          <mxGeometry x="786" y="377" width="125" height="30" as="geometry" />
        </mxCell>
        <mxCell id="76pOBQbfIAmx4sFAEdD8-4" value="" style="rounded=1;whiteSpace=wrap;html=1;fillColor=none;dashed=1;strokeWidth=3;strokeColor=#F19C99;" parent="1" vertex="1">
          <mxGeometry x="227" y="860" width="329" height="375" as="geometry" />
        </mxCell>
        <mxCell id="76pOBQbfIAmx4sFAEdD8-5" value="" style="shape=image;verticalLabelPosition=bottom;verticalAlign=top;imageAspect=0;aspect=fixed;image=data:image/svg+xml,PHN2ZyB4bWxuczp4bGluaz0iaHR0cDovL3d3dy53My5vcmcvMTk5OS94bGluayIgeG1sbnM9Imh0dHA6Ly93d3cudzMub3JnLzIwMDAvc3ZnIiBoZWlnaHQ9IjIwMCIgd2lkdGg9IjIwMCIgdmVyc2lvbj0iMS4xIiB2aWV3Qm94PSIwIDAgMTAyNCAxMDI0IiBjbGFzcz0iaWNvbiI+PGRlZnM+PHN0eWxlIHR5cGU9InRleHQvY3NzIj5AZm9udC1mYWNlIHsgZm9udC1mYW1pbHk6IGZlZWRiYWNrLWljb25mb250OyBzcmM6IHVybCgiLy9hdC5hbGljZG4uY29tL3QvZm9udF8xMDMxMTU4X3U2OXc4eWh4ZHUud29mZjI/dD0xNjMwMDMzNzU5OTQ0IikgZm9ybWF0KCJ3b2ZmMiIpLCB1cmwoIi8vYXQuYWxpY2RuLmNvbS90L2ZvbnRfMTAzMTE1OF91Njl3OHloeGR1LndvZmY/dD0xNjMwMDMzNzU5OTQ0IikgZm9ybWF0KCJ3b2ZmIiksIHVybCgiLy9hdC5hbGljZG4uY29tL3QvZm9udF8xMDMxMTU4X3U2OXc4eWh4ZHUudHRmP3Q9MTYzMDAzMzc1OTk0NCIpIGZvcm1hdCgidHJ1ZXR5cGUiKTsgfSYjeGE7PC9zdHlsZT48L2RlZnM+PHBhdGggZmlsbD0iIzRBOTE5QiIgZD0iTTg0Mi4zOTQ1OTUgNzk5LjczMzIzNyA2NDAuOTczMDc2IDc5OS43MzMyMzcgNjQwLjk3MzA3NiA5MTQuODI1NTA4bDU3LjU0OTAwNSAwYzE1LjkwMzg1MyAwIDI4Ljc3NDUwMyAxMi44NjkwOTkgMjguNzc0NTAzIDI4Ljc3MzMyNCAwIDE1LjkwMzIwMi0xMi44NzA2NDkgMjguNzcyMy0yOC43NzQ1MDMgMjguNzcyM0wzNTMuMjI4MDUgOTcyLjM3MTEzMmMtMTUuOTA0ODc3IDAtMjguNzc0NTAzLTEyLjg2OTA5OS0yOC43NzQ1MDMtMjguNzcyMyAwLTE1LjkwNDIyNSAxMi44Njk2MjYtMjguNzczMzI0IDI4Ljc3NDUwMy0yOC43NzMzMjRsNTcuNTQ5MDA1IDBMNDEwLjc3NzA1NSA3OTkuNzMzMjM3IDE4MC41ODEwMzQgNzk5LjczMzIzN2MtNjMuNTYyMTk5IDAtMTE1LjA5ODAxMS01MS41MzM3LTExNS4wOTgwMTEtMTE1LjA5MzI5NUw2NS40ODMwMjMgMTY2LjcyMDExNmMwLTYzLjU1OTU5NSA1MS41MzU4MTItMTE1LjA5MzI5NSAxMTUuMDk4MDExLTExNS4wOTMyOTVsNjYxLjgxMjUzNyAwYzYzLjU2MTE3NiAwIDExNS4wOTgwMTEgNTEuNTMzNyAxMTUuMDk4MDExIDExNS4wOTMyOTVsMCA1MTcuOTE5ODI2Qzk1Ny40OTE1ODIgNzQ4LjE5ODUxMyA5MDUuOTU1NzcgNzk5LjczMzIzNyA4NDIuMzk0NTk1IDc5OS43MzMyMzd6TTU4My40MjQwNzEgOTE0LjgyNTUwOCA1ODMuNDI0MDcxIDc5OS43MzMyMzcgNDY4LjMyNjA2IDc5OS43MzMyMzcgNDY4LjMyNjA2IDkxNC44MjU1MDggNTgzLjQyNDA3MSA5MTQuODI1NTA4ek04OTkuOTQyNTc3IDE2Ni43MjAxMTZjMC0zMS43Nzk3OTctMjUuNzY3OTA2LTU3LjU0NjY0Ny01Ny41NDc5ODItNTcuNTQ2NjQ3TDE4MC41ODEwMzQgMTA5LjE3MzQ2OGMtMzEuNzgxMDk5IDAtNTcuNTQ5MDA1IDI1Ljc2Njg1LTU3LjU0OTAwNSA1Ny41NDY2NDdsMCA0MDIuODI2NTMyTDg5OS45NDI1NzcgNTY5LjU0NjY0NyA4OTkuOTQyNTc3IDE2Ni43MjAxMTZ6TTg5OS45NDI1NzcgNjI3LjA5MzI5NSAxMjMuMDMzMDUyIDYyNy4wOTMyOTVsMCA1Ny41NDY2NDdjMCAzMS43Nzk3OTcgMjUuNzY3OTA2IDU3LjU0NTYyNCA1Ny41NDkwMDUgNTcuNTQ1NjI0bDY2MS44MTI1MzcgMGMzMS43ODEwOTkgMCA1Ny41NDc5ODItMjUuNzY2ODUgNTcuNTQ3OTgyLTU3LjU0NTYyNEw4OTkuOTQyNTc3IDYyNy4wOTMyOTV6Ii8+PC9zdmc+" parent="1" vertex="1">
          <mxGeometry x="247" y="1052" width="133" height="133" as="geometry" />
        </mxCell>
        <mxCell id="76pOBQbfIAmx4sFAEdD8-6" value="&lt;font color=&quot;#4a919b&quot; style=&quot;font-size: 26px;&quot;&gt;局域网IP&lt;/font&gt;" style="text;html=1;strokeColor=none;fillColor=none;align=center;verticalAlign=middle;whiteSpace=wrap;rounded=0;" parent="1" vertex="1">
          <mxGeometry x="243.5" y="1193" width="140" height="30" as="geometry" />
        </mxCell>
        <mxCell id="76pOBQbfIAmx4sFAEdD8-7" value="" style="shape=image;verticalLabelPosition=bottom;verticalAlign=top;imageAspect=0;aspect=fixed;image=data:image/svg+xml,PHN2ZyB4bWxuczp4bGluaz0iaHR0cDovL3d3dy53My5vcmcvMTk5OS94bGluayIgeG1sbnM9Imh0dHA6Ly93d3cudzMub3JnLzIwMDAvc3ZnIiBoZWlnaHQ9IjIwMCIgd2lkdGg9IjIwMCIgdmVyc2lvbj0iMS4xIiB2aWV3Qm94PSIwIDAgMTAyNCAxMDI0IiBjbGFzcz0iaWNvbiI+PGRlZnM+PHN0eWxlIHR5cGU9InRleHQvY3NzIj5AZm9udC1mYWNlIHsgZm9udC1mYW1pbHk6IGZlZWRiYWNrLWljb25mb250OyBzcmM6IHVybCgiLy9hdC5hbGljZG4uY29tL3QvZm9udF8xMDMxMTU4X3U2OXc4eWh4ZHUud29mZjI/dD0xNjMwMDMzNzU5OTQ0IikgZm9ybWF0KCJ3b2ZmMiIpLCB1cmwoIi8vYXQuYWxpY2RuLmNvbS90L2ZvbnRfMTAzMTE1OF91Njl3OHloeGR1LndvZmY/dD0xNjMwMDMzNzU5OTQ0IikgZm9ybWF0KCJ3b2ZmIiksIHVybCgiLy9hdC5hbGljZG4uY29tL3QvZm9udF8xMDMxMTU4X3U2OXc4eWh4ZHUudHRmP3Q9MTYzMDAzMzc1OTk0NCIpIGZvcm1hdCgidHJ1ZXR5cGUiKTsgfSYjeGE7PC9zdHlsZT48L2RlZnM+PHBhdGggZmlsbD0iIzRBOTE5QiIgZD0iTTg0Mi4zOTQ1OTUgNzk5LjczMzIzNyA2NDAuOTczMDc2IDc5OS43MzMyMzcgNjQwLjk3MzA3NiA5MTQuODI1NTA4bDU3LjU0OTAwNSAwYzE1LjkwMzg1MyAwIDI4Ljc3NDUwMyAxMi44NjkwOTkgMjguNzc0NTAzIDI4Ljc3MzMyNCAwIDE1LjkwMzIwMi0xMi44NzA2NDkgMjguNzcyMy0yOC43NzQ1MDMgMjguNzcyM0wzNTMuMjI4MDUgOTcyLjM3MTEzMmMtMTUuOTA0ODc3IDAtMjguNzc0NTAzLTEyLjg2OTA5OS0yOC43NzQ1MDMtMjguNzcyMyAwLTE1LjkwNDIyNSAxMi44Njk2MjYtMjguNzczMzI0IDI4Ljc3NDUwMy0yOC43NzMzMjRsNTcuNTQ5MDA1IDBMNDEwLjc3NzA1NSA3OTkuNzMzMjM3IDE4MC41ODEwMzQgNzk5LjczMzIzN2MtNjMuNTYyMTk5IDAtMTE1LjA5ODAxMS01MS41MzM3LTExNS4wOTgwMTEtMTE1LjA5MzI5NUw2NS40ODMwMjMgMTY2LjcyMDExNmMwLTYzLjU1OTU5NSA1MS41MzU4MTItMTE1LjA5MzI5NSAxMTUuMDk4MDExLTExNS4wOTMyOTVsNjYxLjgxMjUzNyAwYzYzLjU2MTE3NiAwIDExNS4wOTgwMTEgNTEuNTMzNyAxMTUuMDk4MDExIDExNS4wOTMyOTVsMCA1MTcuOTE5ODI2Qzk1Ny40OTE1ODIgNzQ4LjE5ODUxMyA5MDUuOTU1NzcgNzk5LjczMzIzNyA4NDIuMzk0NTk1IDc5OS43MzMyMzd6TTU4My40MjQwNzEgOTE0LjgyNTUwOCA1ODMuNDI0MDcxIDc5OS43MzMyMzcgNDY4LjMyNjA2IDc5OS43MzMyMzcgNDY4LjMyNjA2IDkxNC44MjU1MDggNTgzLjQyNDA3MSA5MTQuODI1NTA4ek04OTkuOTQyNTc3IDE2Ni43MjAxMTZjMC0zMS43Nzk3OTctMjUuNzY3OTA2LTU3LjU0NjY0Ny01Ny41NDc5ODItNTcuNTQ2NjQ3TDE4MC41ODEwMzQgMTA5LjE3MzQ2OGMtMzEuNzgxMDk5IDAtNTcuNTQ5MDA1IDI1Ljc2Njg1LTU3LjU0OTAwNSA1Ny41NDY2NDdsMCA0MDIuODI2NTMyTDg5OS45NDI1NzcgNTY5LjU0NjY0NyA4OTkuOTQyNTc3IDE2Ni43MjAxMTZ6TTg5OS45NDI1NzcgNjI3LjA5MzI5NSAxMjMuMDMzMDUyIDYyNy4wOTMyOTVsMCA1Ny41NDY2NDdjMCAzMS43Nzk3OTcgMjUuNzY3OTA2IDU3LjU0NTYyNCA1Ny41NDkwMDUgNTcuNTQ1NjI0bDY2MS44MTI1MzcgMGMzMS43ODEwOTkgMCA1Ny41NDc5ODItMjUuNzY2ODUgNTcuNTQ3OTgyLTU3LjU0NTYyNEw4OTkuOTQyNTc3IDYyNy4wOTMyOTV6Ii8+PC9zdmc+" parent="1" vertex="1">
          <mxGeometry x="403" y="1052" width="133" height="133" as="geometry" />
        </mxCell>
        <mxCell id="76pOBQbfIAmx4sFAEdD8-9" style="edgeStyle=orthogonalEdgeStyle;rounded=1;orthogonalLoop=1;jettySize=auto;html=1;exitX=0.5;exitY=1;exitDx=0;exitDy=0;entryX=0.5;entryY=0;entryDx=0;entryDy=0;strokeWidth=3;strokeColor=#4A919B;dashed=1;" parent="1" source="76pOBQbfIAmx4sFAEdD8-11" target="76pOBQbfIAmx4sFAEdD8-5" edge="1">
          <mxGeometry relative="1" as="geometry" />
        </mxCell>
        <mxCell id="76pOBQbfIAmx4sFAEdD8-10" style="edgeStyle=orthogonalEdgeStyle;rounded=1;orthogonalLoop=1;jettySize=auto;html=1;exitX=0.5;exitY=1;exitDx=0;exitDy=0;strokeWidth=3;strokeColor=#4A919B;dashed=1;" parent="1" source="76pOBQbfIAmx4sFAEdD8-11" target="76pOBQbfIAmx4sFAEdD8-7" edge="1">
          <mxGeometry relative="1" as="geometry" />
        </mxCell>
        <mxCell id="76pOBQbfIAmx4sFAEdD8-11" value="" style="shape=image;verticalLabelPosition=bottom;verticalAlign=top;imageAspect=0;aspect=fixed;image=data:image/svg+xml,PHN2ZyB4bWxuczp4bGluaz0iaHR0cDovL3d3dy53My5vcmcvMTk5OS94bGluayIgeG1sbnM9Imh0dHA6Ly93d3cudzMub3JnLzIwMDAvc3ZnIiBoZWlnaHQ9IjIwMCIgd2lkdGg9IjIwMCIgdmVyc2lvbj0iMS4xIiB2aWV3Qm94PSIwIDAgMTAyNCAxMDI0IiBjbGFzcz0iaWNvbiI+PGRlZnM+PHN0eWxlIHR5cGU9InRleHQvY3NzIj5AZm9udC1mYWNlIHsgZm9udC1mYW1pbHk6IGZlZWRiYWNrLWljb25mb250OyBzcmM6IHVybCgiLy9hdC5hbGljZG4uY29tL3QvZm9udF8xMDMxMTU4X3U2OXc4eWh4ZHUud29mZjI/dD0xNjMwMDMzNzU5OTQ0IikgZm9ybWF0KCJ3b2ZmMiIpLCB1cmwoIi8vYXQuYWxpY2RuLmNvbS90L2ZvbnRfMTAzMTE1OF91Njl3OHloeGR1LndvZmY/dD0xNjMwMDMzNzU5OTQ0IikgZm9ybWF0KCJ3b2ZmIiksIHVybCgiLy9hdC5hbGljZG4uY29tL3QvZm9udF8xMDMxMTU4X3U2OXc4eWh4ZHUudHRmP3Q9MTYzMDAzMzc1OTk0NCIpIGZvcm1hdCgidHJ1ZXR5cGUiKTsgfSYjeGE7PC9zdHlsZT48L2RlZnM+PHBhdGggZmlsbD0iIzRBOTE5QiIgZD0iTTk2MCA5NDRINjRjLTM1LjI5NiAwLTY0LTI4LjcwNC02NC02NFY2NTZjMC0zNS4yOTYgMjguNzA0LTY0IDY0LTY0aDg5NmMzNS4yOTYgMCA2NCAyOC43MDQgNjQgNjR2MjI0YzAgMzUuMjk2LTI4LjcwNCA2NC02NCA2NHpNNjQgNjI0Yy0xNy42NDggMC0zMiAxNC4zNTItMzIgMzJ2MjI0YzAgMTcuNjQ4IDE0LjM1MiAzMiAzMiAzMmg4OTZjMTcuNjQ4IDAgMzItMTQuMzUyIDMyLTMyVjY1NmMwLTE3LjY0OC0xNC4zNTItMzItMzItMzJINjR6Ii8+PHBhdGggZmlsbD0iIzRBOTE5QiIgZD0iTTI0MCAxMDA4SDExMmExNiAxNiAwIDAgMS0xNi0xNnYtNjRhMTYgMTYgMCAwIDEgMTYtMTZoMTI4YTE2IDE2IDAgMCAxIDE2IDE2djY0YTE2IDE2IDAgMCAxLTE2IDE2eiBtLTExMi0zMmg5NnYtMzJIMTI4djMyek05MTIgMTAwOGgtMTI4YTE2IDE2IDAgMCAxLTE2LTE2di02NGExNiAxNiAwIDAgMSAxNi0xNmgxMjhhMTYgMTYgMCAwIDEgMTYgMTZ2NjRhMTYgMTYgMCAwIDEtMTYgMTZ6IG0tMTEyLTMyaDk2di0zMmgtOTZ2MzJ6TTg1Ni42NTYgNDYwLjE2YTE1Ljk4NCAxNS45ODQgMCAwIDEtNi44MTYtMzAuNDk2QzkxNi43NjggMzk4LjI3MiA5NjAgMzMwLjA5NiA5NjAgMjU2YzAtMTA1Ljg3Mi04Ni4xMjgtMTkyLTE5Mi0xOTJTNTc2IDE1MC4xMjggNTc2IDI1NmMwIDc0LjA4IDQzLjIzMiAxNDIuMjcyIDExMC4xNiAxNzMuNjY0YTE2IDE2IDAgMCAxLTEzLjYgMjguOTc2QzU5NC40OCA0MjEuOTg0IDU0NCAzNDIuNDQ4IDU0NCAyNTZjMC0xMjMuNTIgMTAwLjQ4LTIyNCAyMjQtMjI0czIyNCAxMDAuNDggMjI0IDIyNGMwIDg2LjQ0OC01MC40NjQgMTY1Ljk4NC0xMjguNTYgMjAyLjY0YTE1Ljk2OCAxNS45NjggMCAwIDEtNi43ODQgMS41MnoiLz48cGF0aCBmaWxsPSIjNEE5MTlCIiBkPSJNODUzLjI5NiAzODcuODRhMTYgMTYgMCAwIDEtOS40ODgtMjguODk2QTEyOC4yNCAxMjguMjQgMCAwIDAgODk2IDI1NmMwLTcwLjU3Ni01Ny40MjQtMTI4LTEyOC0xMjhzLTEyOCA1Ny40MjQtMTI4IDEyOGExMjguMjQgMTI4LjI0IDAgMCAwIDUyLjE5MiAxMDIuOTQ0IDE2IDE2IDAgMCAxLTE4Ljk0NCAyNS43OTJBMTYwLjMzNiAxNjAuMzM2IDAgMCAxIDYwOCAyNTZjMC04OC4yMjQgNzEuNzc2LTE2MCAxNjAtMTYwczE2MCA3MS43NzYgMTYwIDE2MGMwIDUwLjYwOC0yNC4zODQgOTguNzItNjUuMjQ4IDEyOC43MzZhMTUuOTIgMTUuOTIgMCAwIDEtOS40NCAzLjEwNHoiLz48cGF0aCBmaWxsPSIjNEE5MTlCIiBkPSJNODQ3LjY5NiAyNzYuNDhhMTYgMTYgMCAwIDEtMTUuNjY0LTE5LjM5MkM4MzIgMjIwLjY4OCA4MDMuMzEyIDE5MiA3NjggMTkycy02NCAyOC43MDQtNjQgNjRjMS44NzIgOC42NC0zLjYzMiAxNy42OTYtMTIuMjcyIDE5LjU2OC04LjU5MiAxLjg4OC0xNy4xODQtMy4wNC0xOS4wNTYtMTEuNjhDNjcyIDI2MC43MzYgNjcyIDI1Ny44ODggNjcyIDI1NmMwLTUyLjk0NCA0My4wNTYtOTYgOTYtOTZzOTYgNDMuMDU2IDk2IDk2YzAgMS45MDQgMCA0Ljc1Mi0wLjY3MiA3Ljg3MmExNi4wMTYgMTYuMDE2IDAgMCAxLTE1LjYzMiAxMi42MDh6Ii8+PHBhdGggZmlsbD0iIzRBOTE5QiIgZD0iTTgwMC4zMiA2MjRINzM2YTE1LjkzNiAxNS45MzYgMCAwIDEtMTEuNTY4LTQuOTYgMTUuOTA0IDE1LjkwNCAwIDAgMS00LjQxNi0xMS43NmwxNS4yNjQtMzM2LjAxNmEzMi43MzYgMzIuNzM2IDAgMCAxIDY1LjQyNCAwbDE1LjEzNiAzMzIuODMyQTE2IDE2IDAgMCAxIDgwMC4zMiA2MjR6IG0tNDcuNTItMzJoMzAuNDQ4bC0xNC41MTItMzE5LjI5Nkw3NTIuOCA1OTJ6TTE0NCA4MTZjLTI2LjQ2NCAwLTQ4LTIxLjUzNi00OC00OHMyMS41MzYtNDggNDgtNDggNDggMjEuNTM2IDQ4IDQ4LTIxLjUzNiA0OC00OCA0OHogbTAtNjRhMTYgMTYgMCAxIDAgMC4wMTYgMzIuMDE2QTE2IDE2IDAgMCAwIDE0NCA3NTJ6TTI3MiA4MTZjLTI2LjQ2NCAwLTQ4LTIxLjUzNi00OC00OHMyMS41MzYtNDggNDgtNDggNDggMjEuNTM2IDQ4IDQ4LTIxLjUzNiA0OC00OCA0OHogbTAtNjRhMTYgMTYgMCAxIDAgMC4wMTYgMzIuMDE2QTE2IDE2IDAgMCAwIDI3MiA3NTJ6TTQwMCA4MTZjLTI2LjQ2NCAwLTQ4LTIxLjUzNi00OC00OHMyMS41MzYtNDggNDgtNDggNDggMjEuNTM2IDQ4IDQ4LTIxLjUzNiA0OC00OCA0OHogbTAtNjRhMTYgMTYgMCAxIDAgMC4wMTYgMzIuMDE2QTE2IDE2IDAgMCAwIDQwMCA3NTJ6TTk0NCA4ODBjLTQuMTYgMC04LjMyLTEuNzYtMTEuMzYtNC42NEExNi44IDE2LjggMCAwIDEgOTI4IDg2NGMwLTQuMzIgMS43Ni04LjMyIDQuNjQtMTEuMzYgNS45Mi01LjkyIDE2LjgtNS45MiAyMi43MiAwIDIuODggMy4wNCA0LjY0IDcuMiA0LjY0IDExLjM2cy0xLjc2IDguMzItNC42NCAxMS4zNmMtMy4wNCAyLjg4LTcuMiA0LjY0LTExLjM2IDQuNjR6TTg4MCA4ODBjLTQuMTYgMC04LjMyLTEuNzYtMTEuMzYtNC42NC0yLjg4LTMuMDQtNC42NC03LjItNC42NC0xMS4zNnMxLjc2LTguMzIgNC42NC0xMS4zNmM1LjkyLTUuOTIgMTYuNjQtNS45MiAyMi43MiAwIDIuODggMy4wNCA0LjY0IDcuMiA0LjY0IDExLjM2cy0xLjc2IDguMzItNC42NCAxMS4zNmMtMy4wNCAzLjA0LTcuMiA0LjY0LTExLjM2IDQuNjR6TTgxNiA4ODBjLTQuMzIgMC04LjMyLTEuNzYtMTEuMzYtNC42NC0yLjg4LTMuMDQtNC42NC03LjItNC42NC0xMS4zNnMxLjc2LTguMzIgNC42NC0xMS4zNmM1LjkyLTUuOTIgMTYuOC01LjkyIDIyLjcyIDAgMi44OCAzLjA0IDQuNjQgNy4yIDQuNjQgMTEuMzZzLTEuNzYgOC4zMi00LjY0IDExLjM2Yy0zLjA0IDIuODgtNy4yIDQuNjQtMTEuMzYgNC42NHpNNzUyIDg4MGMtNC4xNiAwLTguMzItMS43Ni0xMS4zNi00LjY0LTIuODgtMy4wNC00LjY0LTcuMi00LjY0LTExLjM2czEuNzYtOC4zMiA0LjY0LTExLjM2YzYuMDgtNS45MiAxNi42NC01LjkyIDIyLjcyIDAgMi44OCAzLjA0IDQuNjQgNy4yIDQuNjQgMTEuMzZzLTEuNzYgOC4zMi00LjY0IDExLjM2Yy0zLjA0IDIuODgtNy4yIDQuNjQtMTEuMzYgNC42NHpNOTQ0IDgxNmMtNC4xNiAwLTguMzItMS43Ni0xMS4zNi00LjY0QTE2LjggMTYuOCAwIDAgMSA5MjggODAwYzAtNC4zMiAxLjc2LTguMzIgNC42NC0xMS4zNiA1LjkyLTUuOTIgMTYuOC01LjkyIDIyLjcyIDAgMi44OCAzLjA0IDQuNjQgNy4yIDQuNjQgMTEuMzZzLTEuNzYgOC4zMi00LjY0IDExLjM2Yy0zLjA0IDIuODgtNy4yIDQuNjQtMTEuMzYgNC42NHpNODgwIDgxNmMtNC4xNiAwLTguMzItMS43Ni0xMS4zNi00LjY0QTE2LjggMTYuOCAwIDAgMSA4NjQgODAwYzAtNC4zMiAxLjc2LTguMzIgNC42NC0xMS4zNiA1LjkyLTUuOTIgMTYuNjQtNS45MiAyMi43MiAwIDIuODggMy4wNCA0LjY0IDcuMiA0LjY0IDExLjM2cy0xLjc2IDguMzItNC42NCAxMS4zNmMtMy4wNCAyLjg4LTcuMiA0LjY0LTExLjM2IDQuNjR6TTgxNiA4MTZjLTQuMTYgMC04LjMyLTEuNzYtMTEuMzYtNC42NC0yLjg4LTMuMDQtNC42NC03LjItNC42NC0xMS4zNnMxLjc2LTguMzIgNC42NC0xMS4zNmM1LjkyLTUuOTIgMTYuOC01LjkyIDIyLjcyIDAgMi44OCAzLjA0IDQuNjQgNy4yIDQuNjQgMTEuMzZzLTEuNzYgOC4zMi00LjY0IDExLjM2Yy0zLjA0IDIuODgtNy4yIDQuNjQtMTEuMzYgNC42NHpNOTQ0IDc1MmMtNC4xNiAwLTguMzItMS43Ni0xMS4zNi00LjY0QTE2LjggMTYuOCAwIDAgMSA5MjggNzM2YzAtNC4zMiAxLjc2LTguMzIgNC42NC0xMS4zNiA1LjkyLTUuOTIgMTYuOC01LjkyIDIyLjcyIDAgMi44OCAzLjA0IDQuNjQgNy4yIDQuNjQgMTEuMzZzLTEuNzYgOC4zMi00LjY0IDExLjM2Yy0zLjA0IDIuODgtNy4yIDQuNjQtMTEuMzYgNC42NHpNODgwIDc1MmMtNC4xNiAwLTguMzItMS43Ni0xMS4zNi00LjY0QTE2LjggMTYuOCAwIDAgMSA4NjQgNzM2YzAtNC4zMiAxLjc2LTguMzIgNC42NC0xMS4zNiA1LjkyLTUuOTIgMTYuNjQtNS45MiAyMi43MiAwIDIuODggMy4wNCA0LjY0IDcuMiA0LjY0IDExLjM2cy0xLjc2IDguMzItNC42NCAxMS4zNmMtMy4wNCAyLjg4LTcuMiA0LjY0LTExLjM2IDQuNjR6TTk0NCA2ODhjLTQuMTYgMC04LjMyLTEuNzYtMTEuMzYtNC42NGExNi4xNiAxNi4xNiAwIDAgMSAwLTIyLjcyYzUuOTItNS45MiAxNi44LTUuOTIgMjIuNzIgMCAyLjg4IDMuMDQgNC42NCA3LjA0IDQuNjQgMTEuMzYgMCA0LjE2LTEuNzYgOC4zMi00LjY0IDExLjM2LTMuMDQgMi44OC03LjIgNC42NC0xMS4zNiA0LjY0eiIvPjwvc3ZnPg==" parent="1" vertex="1">
          <mxGeometry x="332" y="872" width="119" height="119" as="geometry" />
        </mxCell>
        <mxCell id="76pOBQbfIAmx4sFAEdD8-12" value="" style="rounded=1;whiteSpace=wrap;html=1;fillColor=none;dashed=1;strokeWidth=3;strokeColor=#4A919B;" parent="1" vertex="1">
          <mxGeometry x="582" y="860" width="329" height="375" as="geometry" />
        </mxCell>
        <mxCell id="76pOBQbfIAmx4sFAEdD8-13" value="" style="shape=image;verticalLabelPosition=bottom;verticalAlign=top;imageAspect=0;aspect=fixed;image=data:image/svg+xml,PHN2ZyB4bWxuczp4bGluaz0iaHR0cDovL3d3dy53My5vcmcvMTk5OS94bGluayIgeG1sbnM9Imh0dHA6Ly93d3cudzMub3JnLzIwMDAvc3ZnIiBoZWlnaHQ9IjIwMCIgd2lkdGg9IjIwMCIgdmVyc2lvbj0iMS4xIiB2aWV3Qm94PSIwIDAgMTAyNCAxMDI0IiBjbGFzcz0iaWNvbiI+PGRlZnM+PHN0eWxlIHR5cGU9InRleHQvY3NzIj5AZm9udC1mYWNlIHsgZm9udC1mYW1pbHk6IGZlZWRiYWNrLWljb25mb250OyBzcmM6IHVybCgiLy9hdC5hbGljZG4uY29tL3QvZm9udF8xMDMxMTU4X3U2OXc4eWh4ZHUud29mZjI/dD0xNjMwMDMzNzU5OTQ0IikgZm9ybWF0KCJ3b2ZmMiIpLCB1cmwoIi8vYXQuYWxpY2RuLmNvbS90L2ZvbnRfMTAzMTE1OF91Njl3OHloeGR1LndvZmY/dD0xNjMwMDMzNzU5OTQ0IikgZm9ybWF0KCJ3b2ZmIiksIHVybCgiLy9hdC5hbGljZG4uY29tL3QvZm9udF8xMDMxMTU4X3U2OXc4eWh4ZHUudHRmP3Q9MTYzMDAzMzc1OTk0NCIpIGZvcm1hdCgidHJ1ZXR5cGUiKTsgfSYjeGE7PC9zdHlsZT48L2RlZnM+PHBhdGggZmlsbD0iIzRBOTE5QiIgZD0iTTg0Mi4zOTQ1OTUgNzk5LjczMzIzNyA2NDAuOTczMDc2IDc5OS43MzMyMzcgNjQwLjk3MzA3NiA5MTQuODI1NTA4bDU3LjU0OTAwNSAwYzE1LjkwMzg1MyAwIDI4Ljc3NDUwMyAxMi44NjkwOTkgMjguNzc0NTAzIDI4Ljc3MzMyNCAwIDE1LjkwMzIwMi0xMi44NzA2NDkgMjguNzcyMy0yOC43NzQ1MDMgMjguNzcyM0wzNTMuMjI4MDUgOTcyLjM3MTEzMmMtMTUuOTA0ODc3IDAtMjguNzc0NTAzLTEyLjg2OTA5OS0yOC43NzQ1MDMtMjguNzcyMyAwLTE1LjkwNDIyNSAxMi44Njk2MjYtMjguNzczMzI0IDI4Ljc3NDUwMy0yOC43NzMzMjRsNTcuNTQ5MDA1IDBMNDEwLjc3NzA1NSA3OTkuNzMzMjM3IDE4MC41ODEwMzQgNzk5LjczMzIzN2MtNjMuNTYyMTk5IDAtMTE1LjA5ODAxMS01MS41MzM3LTExNS4wOTgwMTEtMTE1LjA5MzI5NUw2NS40ODMwMjMgMTY2LjcyMDExNmMwLTYzLjU1OTU5NSA1MS41MzU4MTItMTE1LjA5MzI5NSAxMTUuMDk4MDExLTExNS4wOTMyOTVsNjYxLjgxMjUzNyAwYzYzLjU2MTE3NiAwIDExNS4wOTgwMTEgNTEuNTMzNyAxMTUuMDk4MDExIDExNS4wOTMyOTVsMCA1MTcuOTE5ODI2Qzk1Ny40OTE1ODIgNzQ4LjE5ODUxMyA5MDUuOTU1NzcgNzk5LjczMzIzNyA4NDIuMzk0NTk1IDc5OS43MzMyMzd6TTU4My40MjQwNzEgOTE0LjgyNTUwOCA1ODMuNDI0MDcxIDc5OS43MzMyMzcgNDY4LjMyNjA2IDc5OS43MzMyMzcgNDY4LjMyNjA2IDkxNC44MjU1MDggNTgzLjQyNDA3MSA5MTQuODI1NTA4ek04OTkuOTQyNTc3IDE2Ni43MjAxMTZjMC0zMS43Nzk3OTctMjUuNzY3OTA2LTU3LjU0NjY0Ny01Ny41NDc5ODItNTcuNTQ2NjQ3TDE4MC41ODEwMzQgMTA5LjE3MzQ2OGMtMzEuNzgxMDk5IDAtNTcuNTQ5MDA1IDI1Ljc2Njg1LTU3LjU0OTAwNSA1Ny41NDY2NDdsMCA0MDIuODI2NTMyTDg5OS45NDI1NzcgNTY5LjU0NjY0NyA4OTkuOTQyNTc3IDE2Ni43MjAxMTZ6TTg5OS45NDI1NzcgNjI3LjA5MzI5NSAxMjMuMDMzMDUyIDYyNy4wOTMyOTVsMCA1Ny41NDY2NDdjMCAzMS43Nzk3OTcgMjUuNzY3OTA2IDU3LjU0NTYyNCA1Ny41NDkwMDUgNTcuNTQ1NjI0bDY2MS44MTI1MzcgMGMzMS43ODEwOTkgMCA1Ny41NDc5ODItMjUuNzY2ODUgNTcuNTQ3OTgyLTU3LjU0NTYyNEw4OTkuOTQyNTc3IDYyNy4wOTMyOTV6Ii8+PC9zdmc+" parent="1" vertex="1">
          <mxGeometry x="602" y="1052" width="133" height="133" as="geometry" />
        </mxCell>
        <mxCell id="76pOBQbfIAmx4sFAEdD8-15" value="" style="shape=image;verticalLabelPosition=bottom;verticalAlign=top;imageAspect=0;aspect=fixed;image=data:image/svg+xml,PHN2ZyB4bWxuczp4bGluaz0iaHR0cDovL3d3dy53My5vcmcvMTk5OS94bGluayIgeG1sbnM9Imh0dHA6Ly93d3cudzMub3JnLzIwMDAvc3ZnIiBoZWlnaHQ9IjIwMCIgd2lkdGg9IjIwMCIgdmVyc2lvbj0iMS4xIiB2aWV3Qm94PSIwIDAgMTAyNCAxMDI0IiBjbGFzcz0iaWNvbiI+PGRlZnM+PHN0eWxlIHR5cGU9InRleHQvY3NzIj5AZm9udC1mYWNlIHsgZm9udC1mYW1pbHk6IGZlZWRiYWNrLWljb25mb250OyBzcmM6IHVybCgiLy9hdC5hbGljZG4uY29tL3QvZm9udF8xMDMxMTU4X3U2OXc4eWh4ZHUud29mZjI/dD0xNjMwMDMzNzU5OTQ0IikgZm9ybWF0KCJ3b2ZmMiIpLCB1cmwoIi8vYXQuYWxpY2RuLmNvbS90L2ZvbnRfMTAzMTE1OF91Njl3OHloeGR1LndvZmY/dD0xNjMwMDMzNzU5OTQ0IikgZm9ybWF0KCJ3b2ZmIiksIHVybCgiLy9hdC5hbGljZG4uY29tL3QvZm9udF8xMDMxMTU4X3U2OXc4eWh4ZHUudHRmP3Q9MTYzMDAzMzc1OTk0NCIpIGZvcm1hdCgidHJ1ZXR5cGUiKTsgfSYjeGE7PC9zdHlsZT48L2RlZnM+PHBhdGggZmlsbD0iIzRBOTE5QiIgZD0iTTg0Mi4zOTQ1OTUgNzk5LjczMzIzNyA2NDAuOTczMDc2IDc5OS43MzMyMzcgNjQwLjk3MzA3NiA5MTQuODI1NTA4bDU3LjU0OTAwNSAwYzE1LjkwMzg1MyAwIDI4Ljc3NDUwMyAxMi44NjkwOTkgMjguNzc0NTAzIDI4Ljc3MzMyNCAwIDE1LjkwMzIwMi0xMi44NzA2NDkgMjguNzcyMy0yOC43NzQ1MDMgMjguNzcyM0wzNTMuMjI4MDUgOTcyLjM3MTEzMmMtMTUuOTA0ODc3IDAtMjguNzc0NTAzLTEyLjg2OTA5OS0yOC43NzQ1MDMtMjguNzcyMyAwLTE1LjkwNDIyNSAxMi44Njk2MjYtMjguNzczMzI0IDI4Ljc3NDUwMy0yOC43NzMzMjRsNTcuNTQ5MDA1IDBMNDEwLjc3NzA1NSA3OTkuNzMzMjM3IDE4MC41ODEwMzQgNzk5LjczMzIzN2MtNjMuNTYyMTk5IDAtMTE1LjA5ODAxMS01MS41MzM3LTExNS4wOTgwMTEtMTE1LjA5MzI5NUw2NS40ODMwMjMgMTY2LjcyMDExNmMwLTYzLjU1OTU5NSA1MS41MzU4MTItMTE1LjA5MzI5NSAxMTUuMDk4MDExLTExNS4wOTMyOTVsNjYxLjgxMjUzNyAwYzYzLjU2MTE3NiAwIDExNS4wOTgwMTEgNTEuNTMzNyAxMTUuMDk4MDExIDExNS4wOTMyOTVsMCA1MTcuOTE5ODI2Qzk1Ny40OTE1ODIgNzQ4LjE5ODUxMyA5MDUuOTU1NzcgNzk5LjczMzIzNyA4NDIuMzk0NTk1IDc5OS43MzMyMzd6TTU4My40MjQwNzEgOTE0LjgyNTUwOCA1ODMuNDI0MDcxIDc5OS43MzMyMzcgNDY4LjMyNjA2IDc5OS43MzMyMzcgNDY4LjMyNjA2IDkxNC44MjU1MDggNTgzLjQyNDA3MSA5MTQuODI1NTA4ek04OTkuOTQyNTc3IDE2Ni43MjAxMTZjMC0zMS43Nzk3OTctMjUuNzY3OTA2LTU3LjU0NjY0Ny01Ny41NDc5ODItNTcuNTQ2NjQ3TDE4MC41ODEwMzQgMTA5LjE3MzQ2OGMtMzEuNzgxMDk5IDAtNTcuNTQ5MDA1IDI1Ljc2Njg1LTU3LjU0OTAwNSA1Ny41NDY2NDdsMCA0MDIuODI2NTMyTDg5OS45NDI1NzcgNTY5LjU0NjY0NyA4OTkuOTQyNTc3IDE2Ni43MjAxMTZ6TTg5OS45NDI1NzcgNjI3LjA5MzI5NSAxMjMuMDMzMDUyIDYyNy4wOTMyOTVsMCA1Ny41NDY2NDdjMCAzMS43Nzk3OTcgMjUuNzY3OTA2IDU3LjU0NTYyNCA1Ny41NDkwMDUgNTcuNTQ1NjI0bDY2MS44MTI1MzcgMGMzMS43ODEwOTkgMCA1Ny41NDc5ODItMjUuNzY2ODUgNTcuNTQ3OTgyLTU3LjU0NTYyNEw4OTkuOTQyNTc3IDYyNy4wOTMyOTV6Ii8+PC9zdmc+" parent="1" vertex="1">
          <mxGeometry x="758" y="1052" width="133" height="133" as="geometry" />
        </mxCell>
        <mxCell id="76pOBQbfIAmx4sFAEdD8-17" style="edgeStyle=orthogonalEdgeStyle;rounded=1;orthogonalLoop=1;jettySize=auto;html=1;exitX=0.5;exitY=1;exitDx=0;exitDy=0;entryX=0.5;entryY=0;entryDx=0;entryDy=0;strokeWidth=3;strokeColor=#4A919B;dashed=1;" parent="1" source="76pOBQbfIAmx4sFAEdD8-19" target="76pOBQbfIAmx4sFAEdD8-13" edge="1">
          <mxGeometry relative="1" as="geometry" />
        </mxCell>
        <mxCell id="76pOBQbfIAmx4sFAEdD8-18" style="edgeStyle=orthogonalEdgeStyle;rounded=1;orthogonalLoop=1;jettySize=auto;html=1;exitX=0.5;exitY=1;exitDx=0;exitDy=0;strokeWidth=3;strokeColor=#4A919B;dashed=1;" parent="1" source="76pOBQbfIAmx4sFAEdD8-19" target="76pOBQbfIAmx4sFAEdD8-15" edge="1">
          <mxGeometry relative="1" as="geometry" />
        </mxCell>
        <mxCell id="76pOBQbfIAmx4sFAEdD8-19" value="" style="shape=image;verticalLabelPosition=bottom;verticalAlign=top;imageAspect=0;aspect=fixed;image=data:image/svg+xml,PHN2ZyB4bWxuczp4bGluaz0iaHR0cDovL3d3dy53My5vcmcvMTk5OS94bGluayIgeG1sbnM9Imh0dHA6Ly93d3cudzMub3JnLzIwMDAvc3ZnIiBoZWlnaHQ9IjIwMCIgd2lkdGg9IjIwMCIgdmVyc2lvbj0iMS4xIiB2aWV3Qm94PSIwIDAgMTAyNCAxMDI0IiBjbGFzcz0iaWNvbiI+PGRlZnM+PHN0eWxlIHR5cGU9InRleHQvY3NzIj5AZm9udC1mYWNlIHsgZm9udC1mYW1pbHk6IGZlZWRiYWNrLWljb25mb250OyBzcmM6IHVybCgiLy9hdC5hbGljZG4uY29tL3QvZm9udF8xMDMxMTU4X3U2OXc4eWh4ZHUud29mZjI/dD0xNjMwMDMzNzU5OTQ0IikgZm9ybWF0KCJ3b2ZmMiIpLCB1cmwoIi8vYXQuYWxpY2RuLmNvbS90L2ZvbnRfMTAzMTE1OF91Njl3OHloeGR1LndvZmY/dD0xNjMwMDMzNzU5OTQ0IikgZm9ybWF0KCJ3b2ZmIiksIHVybCgiLy9hdC5hbGljZG4uY29tL3QvZm9udF8xMDMxMTU4X3U2OXc4eWh4ZHUudHRmP3Q9MTYzMDAzMzc1OTk0NCIpIGZvcm1hdCgidHJ1ZXR5cGUiKTsgfSYjeGE7PC9zdHlsZT48L2RlZnM+PHBhdGggZmlsbD0iIzRBOTE5QiIgZD0iTTk2MCA5NDRINjRjLTM1LjI5NiAwLTY0LTI4LjcwNC02NC02NFY2NTZjMC0zNS4yOTYgMjguNzA0LTY0IDY0LTY0aDg5NmMzNS4yOTYgMCA2NCAyOC43MDQgNjQgNjR2MjI0YzAgMzUuMjk2LTI4LjcwNCA2NC02NCA2NHpNNjQgNjI0Yy0xNy42NDggMC0zMiAxNC4zNTItMzIgMzJ2MjI0YzAgMTcuNjQ4IDE0LjM1MiAzMiAzMiAzMmg4OTZjMTcuNjQ4IDAgMzItMTQuMzUyIDMyLTMyVjY1NmMwLTE3LjY0OC0xNC4zNTItMzItMzItMzJINjR6Ii8+PHBhdGggZmlsbD0iIzRBOTE5QiIgZD0iTTI0MCAxMDA4SDExMmExNiAxNiAwIDAgMS0xNi0xNnYtNjRhMTYgMTYgMCAwIDEgMTYtMTZoMTI4YTE2IDE2IDAgMCAxIDE2IDE2djY0YTE2IDE2IDAgMCAxLTE2IDE2eiBtLTExMi0zMmg5NnYtMzJIMTI4djMyek05MTIgMTAwOGgtMTI4YTE2IDE2IDAgMCAxLTE2LTE2di02NGExNiAxNiAwIDAgMSAxNi0xNmgxMjhhMTYgMTYgMCAwIDEgMTYgMTZ2NjRhMTYgMTYgMCAwIDEtMTYgMTZ6IG0tMTEyLTMyaDk2di0zMmgtOTZ2MzJ6TTg1Ni42NTYgNDYwLjE2YTE1Ljk4NCAxNS45ODQgMCAwIDEtNi44MTYtMzAuNDk2QzkxNi43NjggMzk4LjI3MiA5NjAgMzMwLjA5NiA5NjAgMjU2YzAtMTA1Ljg3Mi04Ni4xMjgtMTkyLTE5Mi0xOTJTNTc2IDE1MC4xMjggNTc2IDI1NmMwIDc0LjA4IDQzLjIzMiAxNDIuMjcyIDExMC4xNiAxNzMuNjY0YTE2IDE2IDAgMCAxLTEzLjYgMjguOTc2QzU5NC40OCA0MjEuOTg0IDU0NCAzNDIuNDQ4IDU0NCAyNTZjMC0xMjMuNTIgMTAwLjQ4LTIyNCAyMjQtMjI0czIyNCAxMDAuNDggMjI0IDIyNGMwIDg2LjQ0OC01MC40NjQgMTY1Ljk4NC0xMjguNTYgMjAyLjY0YTE1Ljk2OCAxNS45NjggMCAwIDEtNi43ODQgMS41MnoiLz48cGF0aCBmaWxsPSIjNEE5MTlCIiBkPSJNODUzLjI5NiAzODcuODRhMTYgMTYgMCAwIDEtOS40ODgtMjguODk2QTEyOC4yNCAxMjguMjQgMCAwIDAgODk2IDI1NmMwLTcwLjU3Ni01Ny40MjQtMTI4LTEyOC0xMjhzLTEyOCA1Ny40MjQtMTI4IDEyOGExMjguMjQgMTI4LjI0IDAgMCAwIDUyLjE5MiAxMDIuOTQ0IDE2IDE2IDAgMCAxLTE4Ljk0NCAyNS43OTJBMTYwLjMzNiAxNjAuMzM2IDAgMCAxIDYwOCAyNTZjMC04OC4yMjQgNzEuNzc2LTE2MCAxNjAtMTYwczE2MCA3MS43NzYgMTYwIDE2MGMwIDUwLjYwOC0yNC4zODQgOTguNzItNjUuMjQ4IDEyOC43MzZhMTUuOTIgMTUuOTIgMCAwIDEtOS40NCAzLjEwNHoiLz48cGF0aCBmaWxsPSIjNEE5MTlCIiBkPSJNODQ3LjY5NiAyNzYuNDhhMTYgMTYgMCAwIDEtMTUuNjY0LTE5LjM5MkM4MzIgMjIwLjY4OCA4MDMuMzEyIDE5MiA3NjggMTkycy02NCAyOC43MDQtNjQgNjRjMS44NzIgOC42NC0zLjYzMiAxNy42OTYtMTIuMjcyIDE5LjU2OC04LjU5MiAxLjg4OC0xNy4xODQtMy4wNC0xOS4wNTYtMTEuNjhDNjcyIDI2MC43MzYgNjcyIDI1Ny44ODggNjcyIDI1NmMwLTUyLjk0NCA0My4wNTYtOTYgOTYtOTZzOTYgNDMuMDU2IDk2IDk2YzAgMS45MDQgMCA0Ljc1Mi0wLjY3MiA3Ljg3MmExNi4wMTYgMTYuMDE2IDAgMCAxLTE1LjYzMiAxMi42MDh6Ii8+PHBhdGggZmlsbD0iIzRBOTE5QiIgZD0iTTgwMC4zMiA2MjRINzM2YTE1LjkzNiAxNS45MzYgMCAwIDEtMTEuNTY4LTQuOTYgMTUuOTA0IDE1LjkwNCAwIDAgMS00LjQxNi0xMS43NmwxNS4yNjQtMzM2LjAxNmEzMi43MzYgMzIuNzM2IDAgMCAxIDY1LjQyNCAwbDE1LjEzNiAzMzIuODMyQTE2IDE2IDAgMCAxIDgwMC4zMiA2MjR6IG0tNDcuNTItMzJoMzAuNDQ4bC0xNC41MTItMzE5LjI5Nkw3NTIuOCA1OTJ6TTE0NCA4MTZjLTI2LjQ2NCAwLTQ4LTIxLjUzNi00OC00OHMyMS41MzYtNDggNDgtNDggNDggMjEuNTM2IDQ4IDQ4LTIxLjUzNiA0OC00OCA0OHogbTAtNjRhMTYgMTYgMCAxIDAgMC4wMTYgMzIuMDE2QTE2IDE2IDAgMCAwIDE0NCA3NTJ6TTI3MiA4MTZjLTI2LjQ2NCAwLTQ4LTIxLjUzNi00OC00OHMyMS41MzYtNDggNDgtNDggNDggMjEuNTM2IDQ4IDQ4LTIxLjUzNiA0OC00OCA0OHogbTAtNjRhMTYgMTYgMCAxIDAgMC4wMTYgMzIuMDE2QTE2IDE2IDAgMCAwIDI3MiA3NTJ6TTQwMCA4MTZjLTI2LjQ2NCAwLTQ4LTIxLjUzNi00OC00OHMyMS41MzYtNDggNDgtNDggNDggMjEuNTM2IDQ4IDQ4LTIxLjUzNiA0OC00OCA0OHogbTAtNjRhMTYgMTYgMCAxIDAgMC4wMTYgMzIuMDE2QTE2IDE2IDAgMCAwIDQwMCA3NTJ6TTk0NCA4ODBjLTQuMTYgMC04LjMyLTEuNzYtMTEuMzYtNC42NEExNi44IDE2LjggMCAwIDEgOTI4IDg2NGMwLTQuMzIgMS43Ni04LjMyIDQuNjQtMTEuMzYgNS45Mi01LjkyIDE2LjgtNS45MiAyMi43MiAwIDIuODggMy4wNCA0LjY0IDcuMiA0LjY0IDExLjM2cy0xLjc2IDguMzItNC42NCAxMS4zNmMtMy4wNCAyLjg4LTcuMiA0LjY0LTExLjM2IDQuNjR6TTg4MCA4ODBjLTQuMTYgMC04LjMyLTEuNzYtMTEuMzYtNC42NC0yLjg4LTMuMDQtNC42NC03LjItNC42NC0xMS4zNnMxLjc2LTguMzIgNC42NC0xMS4zNmM1LjkyLTUuOTIgMTYuNjQtNS45MiAyMi43MiAwIDIuODggMy4wNCA0LjY0IDcuMiA0LjY0IDExLjM2cy0xLjc2IDguMzItNC42NCAxMS4zNmMtMy4wNCAzLjA0LTcuMiA0LjY0LTExLjM2IDQuNjR6TTgxNiA4ODBjLTQuMzIgMC04LjMyLTEuNzYtMTEuMzYtNC42NC0yLjg4LTMuMDQtNC42NC03LjItNC42NC0xMS4zNnMxLjc2LTguMzIgNC42NC0xMS4zNmM1LjkyLTUuOTIgMTYuOC01LjkyIDIyLjcyIDAgMi44OCAzLjA0IDQuNjQgNy4yIDQuNjQgMTEuMzZzLTEuNzYgOC4zMi00LjY0IDExLjM2Yy0zLjA0IDIuODgtNy4yIDQuNjQtMTEuMzYgNC42NHpNNzUyIDg4MGMtNC4xNiAwLTguMzItMS43Ni0xMS4zNi00LjY0LTIuODgtMy4wNC00LjY0LTcuMi00LjY0LTExLjM2czEuNzYtOC4zMiA0LjY0LTExLjM2YzYuMDgtNS45MiAxNi42NC01LjkyIDIyLjcyIDAgMi44OCAzLjA0IDQuNjQgNy4yIDQuNjQgMTEuMzZzLTEuNzYgOC4zMi00LjY0IDExLjM2Yy0zLjA0IDIuODgtNy4yIDQuNjQtMTEuMzYgNC42NHpNOTQ0IDgxNmMtNC4xNiAwLTguMzItMS43Ni0xMS4zNi00LjY0QTE2LjggMTYuOCAwIDAgMSA5MjggODAwYzAtNC4zMiAxLjc2LTguMzIgNC42NC0xMS4zNiA1LjkyLTUuOTIgMTYuOC01LjkyIDIyLjcyIDAgMi44OCAzLjA0IDQuNjQgNy4yIDQuNjQgMTEuMzZzLTEuNzYgOC4zMi00LjY0IDExLjM2Yy0zLjA0IDIuODgtNy4yIDQuNjQtMTEuMzYgNC42NHpNODgwIDgxNmMtNC4xNiAwLTguMzItMS43Ni0xMS4zNi00LjY0QTE2LjggMTYuOCAwIDAgMSA4NjQgODAwYzAtNC4zMiAxLjc2LTguMzIgNC42NC0xMS4zNiA1LjkyLTUuOTIgMTYuNjQtNS45MiAyMi43MiAwIDIuODggMy4wNCA0LjY0IDcuMiA0LjY0IDExLjM2cy0xLjc2IDguMzItNC42NCAxMS4zNmMtMy4wNCAyLjg4LTcuMiA0LjY0LTExLjM2IDQuNjR6TTgxNiA4MTZjLTQuMTYgMC04LjMyLTEuNzYtMTEuMzYtNC42NC0yLjg4LTMuMDQtNC42NC03LjItNC42NC0xMS4zNnMxLjc2LTguMzIgNC42NC0xMS4zNmM1LjkyLTUuOTIgMTYuOC01LjkyIDIyLjcyIDAgMi44OCAzLjA0IDQuNjQgNy4yIDQuNjQgMTEuMzZzLTEuNzYgOC4zMi00LjY0IDExLjM2Yy0zLjA0IDIuODgtNy4yIDQuNjQtMTEuMzYgNC42NHpNOTQ0IDc1MmMtNC4xNiAwLTguMzItMS43Ni0xMS4zNi00LjY0QTE2LjggMTYuOCAwIDAgMSA5MjggNzM2YzAtNC4zMiAxLjc2LTguMzIgNC42NC0xMS4zNiA1LjkyLTUuOTIgMTYuOC01LjkyIDIyLjcyIDAgMi44OCAzLjA0IDQuNjQgNy4yIDQuNjQgMTEuMzZzLTEuNzYgOC4zMi00LjY0IDExLjM2Yy0zLjA0IDIuODgtNy4yIDQuNjQtMTEuMzYgNC42NHpNODgwIDc1MmMtNC4xNiAwLTguMzItMS43Ni0xMS4zNi00LjY0QTE2LjggMTYuOCAwIDAgMSA4NjQgNzM2YzAtNC4zMiAxLjc2LTguMzIgNC42NC0xMS4zNiA1LjkyLTUuOTIgMTYuNjQtNS45MiAyMi43MiAwIDIuODggMy4wNCA0LjY0IDcuMiA0LjY0IDExLjM2cy0xLjc2IDguMzItNC42NCAxMS4zNmMtMy4wNCAyLjg4LTcuMiA0LjY0LTExLjM2IDQuNjR6TTk0NCA2ODhjLTQuMTYgMC04LjMyLTEuNzYtMTEuMzYtNC42NGExNi4xNiAxNi4xNiAwIDAgMSAwLTIyLjcyYzUuOTItNS45MiAxNi44LTUuOTIgMjIuNzIgMCAyLjg4IDMuMDQgNC42NCA3LjA0IDQuNjQgMTEuMzYgMCA0LjE2LTEuNzYgOC4zMi00LjY0IDExLjM2LTMuMDQgMi44OC03LjIgNC42NC0xMS4zNiA0LjY0eiIvPjwvc3ZnPg==" parent="1" vertex="1">
          <mxGeometry x="687" y="872" width="119" height="119" as="geometry" />
        </mxCell>
        <mxCell id="76pOBQbfIAmx4sFAEdD8-20" value="&lt;font color=&quot;#4a919b&quot; style=&quot;font-size: 26px;&quot;&gt;局域网IP&lt;/font&gt;" style="text;html=1;strokeColor=none;fillColor=none;align=center;verticalAlign=middle;whiteSpace=wrap;rounded=0;" parent="1" vertex="1">
          <mxGeometry x="399.5" y="1193" width="140" height="30" as="geometry" />
        </mxCell>
        <mxCell id="76pOBQbfIAmx4sFAEdD8-21" value="&lt;font color=&quot;#4a919b&quot; style=&quot;font-size: 26px;&quot;&gt;局域网IP&lt;/font&gt;" style="text;html=1;strokeColor=none;fillColor=none;align=center;verticalAlign=middle;whiteSpace=wrap;rounded=0;" parent="1" vertex="1">
          <mxGeometry x="598.5" y="1193" width="140" height="30" as="geometry" />
        </mxCell>
        <mxCell id="76pOBQbfIAmx4sFAEdD8-22" value="&lt;font color=&quot;#4a919b&quot; style=&quot;font-size: 26px;&quot;&gt;局域网IP&lt;/font&gt;" style="text;html=1;strokeColor=none;fillColor=none;align=center;verticalAlign=middle;whiteSpace=wrap;rounded=0;" parent="1" vertex="1">
          <mxGeometry x="754.5" y="1193" width="140" height="30" as="geometry" />
        </mxCell>
        <mxCell id="76pOBQbfIAmx4sFAEdD8-25" value="" style="shape=curlyBracket;whiteSpace=wrap;html=1;rounded=1;strokeColor=#F19C99;strokeWidth=5;fontSize=51;fillColor=none;" parent="1" vertex="1">
          <mxGeometry x="172" y="860" width="20" height="374" as="geometry" />
        </mxCell>
        <mxCell id="76pOBQbfIAmx4sFAEdD8-26" value="&lt;font color=&quot;#f19c99&quot; style=&quot;font-size: 51px;&quot;&gt;局域网&lt;/font&gt;" style="text;html=1;strokeColor=none;fillColor=none;align=center;verticalAlign=middle;whiteSpace=wrap;rounded=0;" parent="1" vertex="1">
          <mxGeometry x="78" y="972.5" width="81" height="150" as="geometry" />
        </mxCell>
      </root>
    </mxGraphModel>
  </diagram>
</mxfile>
